<svg width="274" height="83" viewBox="0 0 274 83" fill="none" xmlns="http://www.w3.org/2000/svg">
<g filter="url(#filter0_dd_29_2935)">
<g clip-path="url(#clip0_29_2935)">
<rect x="5" y="1.77072" width="264" height="72" rx="16" fill="#303030"/>
<g clip-path="url(#clip1_29_2935)">
<path d="M13.2168 21.9258C13.2168 15.2127 18.6588 9.77072 25.3719 9.77072H57.0616C63.7746 9.77072 69.2168 15.2127 69.2168 21.9258V53.6157C69.2168 60.3287 63.7746 65.7707 57.0616 65.7707H25.3717C18.6588 65.7707 13.2166 60.3287 13.2166 53.6157L13.2168 21.9258Z" fill="#2797CF"/>
<path d="M40.6682 49.132C71.6498 30.4679 38.2295 50.6455 69.211 31.9814V54.6565L64.3946 63.6486L40.6682 49.132Z" fill="#FFFFFE" fill-opacity="0.4"/>
<path d="M13.2162 53.1976V31.7416L63.1057 62.1153L59.2098 64.6375L17.7211 62.1963L13.2162 53.1976Z" fill="#FFFFFE" fill-opacity="0.4"/>
<path opacity="0.1" fill-rule="evenodd" clip-rule="evenodd" d="M13.2171 25.805V22.713L41.2166 39.9358L69.219 22.7506V25.8425L41.2169 43.0278L13.2171 25.805Z" fill="black"/>
<path d="M41.298 39.788L13.2169 22.7137V22.0206C13.2169 15.2552 18.7207 9.77072 25.5099 9.77072H56.9236C63.776 9.77072 69.3056 15.3538 69.2158 22.1815L69.2086 22.7137L41.298 39.788Z" fill="#FFFFFE" fill-opacity="0.4"/>
<path d="M13.3547 20.8362L41.2166 37.9211L69.0953 20.8522L69.1817 22.0306V22.9607L41.2166 40.0817L13.2518 22.9605V21.9223L13.3547 20.8362Z" fill="#B1DAEE"/>
<path d="M41.2165 48.6681L13.2517 31.5471V33.7074L59.8717 62.2624L61.1415 61.8908L62.1145 61.4776L42.9686 49.7558L69.1816 33.7074V31.5471L41.2165 48.6681Z" fill="#B1DAEE"/>
<path fill-rule="evenodd" clip-rule="evenodd" d="M13.217 49.8174V53.6157C13.217 60.3287 18.659 65.7707 25.3721 65.7707H57.062C63.7751 65.7707 69.217 60.3287 69.217 53.6157V49.8174C69.217 56.5305 63.7751 61.9725 57.062 61.9725H25.3721C18.659 61.9725 13.217 56.5305 13.217 49.8174Z" fill="#2797CF"/>
<path fill-rule="evenodd" clip-rule="evenodd" d="M25.3719 9.77072C18.6588 9.77072 13.2169 15.2127 13.2169 21.9258V22.2461C13.8732 16.1521 19.0333 11.408 25.3014 11.408H57.062C63.7751 11.408 69.2171 16.8499 69.2171 23.563V21.9258C69.2171 15.2127 63.7751 9.77072 57.062 9.77072H25.3719Z" fill="white" fill-opacity="0.3"/>
</g>
<g clip-path="url(#clip2_29_2935)">
<mask id="mask0_29_2935" style="mask-type:luminance" maskUnits="userSpaceOnUse" x="77" y="9" width="57" height="57">
<path d="M77.0706 9.77072H133.071V65.7707H77.0706V9.77072Z" fill="white"/>
</mask>
<g mask="url(#mask0_29_2935)">
<path d="M77.0705 21.9258C77.0705 15.2127 82.5125 9.77072 89.2256 9.77072H120.915C127.628 9.77072 133.07 15.2127 133.07 21.9258V53.6155C133.07 60.3285 127.628 65.7707 120.915 65.7707H89.2254C82.5125 65.7707 77.0703 60.3285 77.0703 53.6157L77.0705 21.9258Z" fill="#FFFFFE"/>
<path d="M107.988 9.77072H120.915C127.628 9.77072 133.07 15.2127 133.07 21.9258V34.8539H113.198C110.321 34.8539 107.988 32.5217 107.988 29.6446V9.77072Z" fill="#EF5A3C"/>
<path d="M107.987 9.77072L133.07 34.8539H111.987C109.778 34.8539 107.987 33.063 107.987 30.8539V9.77072Z" fill="white"/>
<path d="M109.288 9.77267L133.07 33.5657V34.8997L107.981 9.77267H109.288Z" fill="#C24228"/>
<path fill-rule="evenodd" clip-rule="evenodd" d="M77.103 49.8987V53.6967C77.103 60.4097 82.545 65.8517 89.2581 65.8517H120.948C127.661 65.8517 133.103 60.4097 133.103 53.6967V49.8987C133.103 56.6117 127.661 62.0537 120.948 62.0537H89.2581C82.545 62.0537 77.103 56.6117 77.103 49.8987Z" fill="#CCCCCB"/>
<path fill-rule="evenodd" clip-rule="evenodd" d="M89.2578 9.85178C82.5448 9.85178 77.1028 15.2938 77.1028 22.0068V22.3272C77.7592 16.2336 82.919 11.489 89.1873 11.489H120.948C127.661 11.489 133.103 16.931 133.103 23.6441V22.0068C133.103 15.2938 127.661 9.85178 120.948 9.85178H89.2578Z" fill="white" fill-opacity="0.3"/>
<path fill-rule="evenodd" clip-rule="evenodd" d="M107.898 9.77267V30.8758C107.898 33.0934 109.696 34.8913 111.913 34.8913H133.152V36.4107H111.913C108.857 36.4107 106.378 33.9326 106.378 30.8758V9.77267H107.898Z" fill="#CCCCCB"/>
</g>
</g>
<g clip-path="url(#clip3_29_2935)">
<mask id="mask1_29_2935" style="mask-type:luminance" maskUnits="userSpaceOnUse" x="141" y="9" width="57" height="57">
<path d="M184.916 9.77072H153.226C146.513 9.77072 141.071 15.2127 141.071 21.9258V53.6157C141.071 60.3287 146.513 65.7707 153.226 65.7707H184.916C191.629 65.7707 197.071 60.3287 197.071 53.6157V21.9258C197.071 15.2127 191.629 9.77072 184.916 9.77072Z" fill="white"/>
</mask>
<g mask="url(#mask1_29_2935)">
<path d="M141.071 21.9258C141.071 15.2127 146.513 9.77072 153.226 9.77072H184.915C191.628 9.77072 197.07 15.2127 197.07 21.9258V53.6155C197.07 60.3285 191.628 65.7707 184.915 65.7707H153.225C146.513 65.7707 141.07 60.3285 141.07 53.6157L141.071 21.9258Z" fill="#00A05E"/>
<path d="M141.071 50.8958H196.487" stroke="#00804B" stroke-width="1.16667" stroke-linecap="round"/>
<path d="M148.396 32.5208C148.396 31.6967 147.728 31.0286 146.904 31.0286C146.08 31.0286 145.412 31.6967 145.412 32.5208V43.6041C145.412 44.4282 146.08 45.0963 146.904 45.0963C147.728 45.0963 148.396 44.4282 148.396 43.6041V32.5208Z" stroke="#19C77F" stroke-width="0.651163"/>
<path d="M145.737 32.5204C145.737 32.211 145.86 31.9142 146.079 31.6954C146.298 31.4766 146.595 31.3537 146.904 31.3537C147.213 31.3537 147.51 31.4766 147.729 31.6954C147.948 31.9142 148.071 32.211 148.071 32.5204V43.6036C148.071 43.913 147.948 44.2098 147.729 44.4286C147.51 44.6474 147.213 44.7703 146.904 44.7703C146.595 44.7703 146.298 44.6474 146.079 44.4286C145.86 44.2098 145.737 43.913 145.737 43.6036V32.5204Z" fill="black" fill-opacity="0.5"/>
<mask id="mask2_29_2935" style="mask-type:luminance" maskUnits="userSpaceOnUse" x="145" y="31" width="4" height="14">
<path d="M145.737 32.5204C145.737 32.211 145.86 31.9142 146.079 31.6954C146.298 31.4766 146.595 31.3537 146.904 31.3537C147.213 31.3537 147.51 31.4766 147.729 31.6954C147.948 31.9142 148.071 32.211 148.071 32.5204V43.6036C148.071 43.913 147.948 44.2098 147.729 44.4286C147.51 44.6474 147.213 44.7703 146.904 44.7703C146.595 44.7703 146.298 44.6474 146.079 44.4286C145.86 44.2098 145.737 43.913 145.737 43.6036V32.5204Z" fill="white"/>
</mask>
<g mask="url(#mask2_29_2935)">
<path d="M145.303 32.5199C145.303 32.0954 145.472 31.6882 145.772 31.388C146.072 31.0878 146.479 30.9192 146.904 30.9192C147.329 30.9192 147.736 31.0878 148.036 31.388C148.336 31.6882 148.505 32.0954 148.505 32.5199H147.637C147.637 32.3256 147.559 32.1393 147.422 32.0019C147.285 31.8646 147.098 31.7874 146.904 31.7874C146.71 31.7874 146.523 31.8646 146.386 32.0019C146.249 32.1393 146.171 32.3256 146.171 32.5199H145.303ZM148.505 43.6032C148.505 44.0277 148.336 44.4349 148.036 44.7351C147.736 45.0353 147.329 45.2039 146.904 45.2039C146.479 45.2039 146.072 45.0353 145.772 44.7351C145.472 44.4349 145.303 44.0277 145.303 43.6032H146.171C146.171 43.7974 146.249 43.9838 146.386 44.1212C146.523 44.2585 146.71 44.3357 146.904 44.3357C147.098 44.3357 147.285 44.2585 147.422 44.1212C147.559 43.9838 147.637 43.7974 147.637 43.6032H148.505ZM146.904 45.2039C146.479 45.2039 146.072 45.0353 145.772 44.7351C145.472 44.4349 145.303 44.0277 145.303 43.6032V32.5199C145.303 32.0954 145.472 31.6882 145.772 31.388C146.072 31.0878 146.479 30.9192 146.904 30.9192V31.7874C146.71 31.7874 146.523 31.8646 146.386 32.0019C146.249 32.1393 146.171 32.3256 146.171 32.5199V43.6032C146.171 43.7974 146.249 43.9838 146.386 44.1212C146.523 44.2585 146.71 44.3357 146.904 44.3357V45.2039ZM146.904 30.9192C147.114 30.9192 147.322 30.9606 147.517 31.041C147.711 31.1215 147.887 31.2394 148.036 31.388C148.185 31.5367 148.302 31.7131 148.383 31.9073C148.463 32.1016 148.505 32.3097 148.505 32.5199V43.6032C148.505 44.0277 148.336 44.4349 148.036 44.7351C147.736 45.0353 147.329 45.2039 146.904 45.2039V44.3357C147.098 44.3357 147.285 44.2585 147.422 44.1212C147.559 43.9838 147.637 43.7974 147.637 43.6032V32.5199C147.637 32.3256 147.559 32.1393 147.422 32.0019C147.285 31.8646 147.098 31.7874 146.904 31.7874V30.9192Z" fill="#1B271D"/>
</g>
<path d="M153.117 32.5208C153.117 31.6967 152.449 31.0286 151.625 31.0286C150.801 31.0286 150.133 31.6967 150.133 32.5208V43.6041C150.133 44.4282 150.801 45.0963 151.625 45.0963C152.449 45.0963 153.117 44.4282 153.117 43.6041V32.5208Z" stroke="#19C77F" stroke-width="0.651163"/>
<path d="M150.458 32.5204C150.458 32.211 150.581 31.9142 150.8 31.6954C151.019 31.4766 151.315 31.3537 151.625 31.3537C151.934 31.3537 152.231 31.4766 152.45 31.6954C152.668 31.9142 152.791 32.211 152.791 32.5204V43.6036C152.791 43.913 152.668 44.2098 152.45 44.4286C152.231 44.6474 151.934 44.7703 151.625 44.7703C151.315 44.7703 151.019 44.6474 150.8 44.4286C150.581 44.2098 150.458 43.913 150.458 43.6036V32.5204Z" fill="black" fill-opacity="0.5"/>
<mask id="mask3_29_2935" style="mask-type:luminance" maskUnits="userSpaceOnUse" x="150" y="31" width="3" height="14">
<path d="M150.458 32.5204C150.458 32.211 150.581 31.9142 150.8 31.6954C151.019 31.4766 151.315 31.3537 151.625 31.3537C151.934 31.3537 152.231 31.4766 152.45 31.6954C152.668 31.9142 152.791 32.211 152.791 32.5204V43.6036C152.791 43.913 152.668 44.2098 152.45 44.4286C152.231 44.6474 151.934 44.7703 151.625 44.7703C151.315 44.7703 151.019 44.6474 150.8 44.4286C150.581 44.2098 150.458 43.913 150.458 43.6036V32.5204Z" fill="white"/>
</mask>
<g mask="url(#mask3_29_2935)">
<path d="M150.024 32.5199C150.024 32.0954 150.193 31.6882 150.493 31.388C150.793 31.0878 151.2 30.9192 151.625 30.9192C152.049 30.9192 152.456 31.0878 152.757 31.388C153.057 31.6882 153.225 32.0954 153.225 32.5199H152.357C152.357 32.3256 152.28 32.1393 152.143 32.0019C152.005 31.8646 151.819 31.7874 151.625 31.7874C151.43 31.7874 151.244 31.8646 151.107 32.0019C150.969 32.1393 150.892 32.3256 150.892 32.5199H150.024ZM153.225 43.6032C153.225 44.0277 153.057 44.4349 152.757 44.7351C152.456 45.0353 152.049 45.2039 151.625 45.2039C151.2 45.2039 150.793 45.0353 150.493 44.7351C150.193 44.4349 150.024 44.0277 150.024 43.6032H150.892C150.892 43.7974 150.969 43.9838 151.107 44.1212C151.244 44.2585 151.43 44.3357 151.625 44.3357C151.819 44.3357 152.005 44.2585 152.143 44.1212C152.28 43.9838 152.357 43.7974 152.357 43.6032H153.225ZM151.625 45.2039C151.2 45.2039 150.793 45.0353 150.493 44.7351C150.193 44.4349 150.024 44.0277 150.024 43.6032V32.5199C150.024 32.0954 150.193 31.6882 150.493 31.388C150.793 31.0878 151.2 30.9192 151.625 30.9192V31.7874C151.43 31.7874 151.244 31.8646 151.107 32.0019C150.969 32.1393 150.892 32.3256 150.892 32.5199V43.6032C150.892 43.7974 150.969 43.9838 151.107 44.1212C151.244 44.2585 151.43 44.3357 151.625 44.3357V45.2039ZM151.625 30.9192C152.049 30.9192 152.456 31.0878 152.757 31.388C153.057 31.6882 153.225 32.0954 153.225 32.5199V43.6032C153.225 44.0277 153.057 44.4349 152.757 44.7351C152.456 45.0353 152.049 45.2039 151.625 45.2039V44.3357C151.819 44.3357 152.005 44.2585 152.143 44.1212C152.28 43.9838 152.357 43.7974 152.357 43.6032V32.5199C152.357 32.3256 152.28 32.1393 152.143 32.0019C152.005 31.8646 151.819 31.7874 151.625 31.7874V30.9192Z" fill="#1B271D"/>
</g>
<path d="M157.838 32.5208C157.838 31.6967 157.17 31.0286 156.346 31.0286C155.522 31.0286 154.853 31.6967 154.853 32.5208V43.6041C154.853 44.4282 155.522 45.0963 156.346 45.0963C157.17 45.0963 157.838 44.4282 157.838 43.6041V32.5208Z" stroke="#19C77F" stroke-width="0.651163"/>
<path d="M155.179 32.5204C155.179 32.211 155.302 31.9142 155.521 31.6954C155.739 31.4766 156.036 31.3537 156.346 31.3537C156.655 31.3537 156.952 31.4766 157.171 31.6954C157.389 31.9142 157.512 32.211 157.512 32.5204V43.6036C157.512 43.913 157.389 44.2098 157.171 44.4286C156.952 44.6474 156.655 44.7703 156.346 44.7703C156.036 44.7703 155.739 44.6474 155.521 44.4286C155.302 44.2098 155.179 43.913 155.179 43.6036V32.5204Z" fill="black" fill-opacity="0.5"/>
<mask id="mask4_29_2935" style="mask-type:luminance" maskUnits="userSpaceOnUse" x="155" y="31" width="3" height="14">
<path d="M155.179 32.5204C155.179 32.211 155.302 31.9142 155.521 31.6954C155.739 31.4766 156.036 31.3537 156.346 31.3537C156.655 31.3537 156.952 31.4766 157.171 31.6954C157.389 31.9142 157.512 32.211 157.512 32.5204V43.6036C157.512 43.913 157.389 44.2098 157.171 44.4286C156.952 44.6474 156.655 44.7703 156.346 44.7703C156.036 44.7703 155.739 44.6474 155.521 44.4286C155.302 44.2098 155.179 43.913 155.179 43.6036V32.5204Z" fill="white"/>
</mask>
<g mask="url(#mask4_29_2935)">
<path d="M154.745 32.5199C154.745 32.0954 154.914 31.6882 155.214 31.388C155.514 31.0878 155.921 30.9192 156.346 30.9192C156.77 30.9192 157.177 31.0878 157.478 31.388C157.778 31.6882 157.946 32.0954 157.946 32.5199H157.078C157.078 32.3256 157.001 32.1393 156.864 32.0019C156.726 31.8646 156.54 31.7874 156.346 31.7874C156.151 31.7874 155.965 31.8646 155.828 32.0019C155.69 32.1393 155.613 32.3256 155.613 32.5199H154.745ZM157.946 43.6032C157.946 44.0277 157.778 44.4349 157.478 44.7351C157.177 45.0353 156.77 45.2039 156.346 45.2039C155.921 45.2039 155.514 45.0353 155.214 44.7351C154.914 44.4349 154.745 44.0277 154.745 43.6032H155.613C155.613 43.7974 155.69 43.9838 155.828 44.1212C155.965 44.2585 156.151 44.3357 156.346 44.3357C156.54 44.3357 156.726 44.2585 156.864 44.1212C157.001 43.9838 157.078 43.7974 157.078 43.6032H157.946ZM156.346 45.2039C155.921 45.2039 155.514 45.0353 155.214 44.7351C154.914 44.4349 154.745 44.0277 154.745 43.6032V32.5199C154.745 32.0954 154.914 31.6882 155.214 31.388C155.514 31.0878 155.921 30.9192 156.346 30.9192V31.7874C156.151 31.7874 155.965 31.8646 155.828 32.0019C155.69 32.1393 155.613 32.3256 155.613 32.5199V43.6032C155.613 43.7974 155.69 43.9838 155.828 44.1212C155.965 44.2585 156.151 44.3357 156.346 44.3357V45.2039ZM156.346 30.9192C156.77 30.9192 157.177 31.0878 157.478 31.388C157.778 31.6882 157.946 32.0954 157.946 32.5199V43.6032C157.946 44.0277 157.778 44.4349 157.478 44.7351C157.177 45.0353 156.77 45.2039 156.346 45.2039V44.3357C156.54 44.3357 156.726 44.2585 156.864 44.1212C157.001 43.9838 157.078 43.7974 157.078 43.6032V32.5199C157.078 32.3256 157.001 32.1393 156.864 32.0019C156.726 31.8646 156.54 31.7874 156.346 31.7874V30.9192Z" fill="#1B271D"/>
</g>
<path d="M162.559 32.5208C162.559 31.6967 161.891 31.0286 161.067 31.0286C160.243 31.0286 159.574 31.6967 159.574 32.5208V43.6041C159.574 44.4282 160.243 45.0963 161.067 45.0963C161.891 45.0963 162.559 44.4282 162.559 43.6041V32.5208Z" stroke="#19C77F" stroke-width="0.651163"/>
<path d="M159.9 32.5204C159.9 32.211 160.023 31.9142 160.242 31.6954C160.46 31.4766 160.757 31.3537 161.067 31.3537C161.376 31.3537 161.673 31.4766 161.892 31.6954C162.11 31.9142 162.233 32.211 162.233 32.5204V43.6036C162.233 43.913 162.11 44.2098 161.892 44.4286C161.673 44.6474 161.376 44.7703 161.067 44.7703C160.757 44.7703 160.46 44.6474 160.242 44.4286C160.023 44.2098 159.9 43.913 159.9 43.6036V32.5204Z" fill="black" fill-opacity="0.5"/>
<mask id="mask5_29_2935" style="mask-type:luminance" maskUnits="userSpaceOnUse" x="159" y="31" width="4" height="14">
<path d="M159.9 32.5204C159.9 32.211 160.023 31.9142 160.242 31.6954C160.46 31.4766 160.757 31.3537 161.067 31.3537C161.376 31.3537 161.673 31.4766 161.892 31.6954C162.11 31.9142 162.233 32.211 162.233 32.5204V43.6036C162.233 43.913 162.11 44.2098 161.892 44.4286C161.673 44.6474 161.376 44.7703 161.067 44.7703C160.757 44.7703 160.46 44.6474 160.242 44.4286C160.023 44.2098 159.9 43.913 159.9 43.6036V32.5204Z" fill="white"/>
</mask>
<g mask="url(#mask5_29_2935)">
<path d="M159.466 32.5199C159.466 32.0954 159.634 31.6882 159.935 31.388C160.235 31.0878 160.642 30.9192 161.067 30.9192C161.491 30.9192 161.898 31.0878 162.199 31.388C162.499 31.6882 162.667 32.0954 162.667 32.5199H161.799C161.799 32.3256 161.722 32.1393 161.585 32.0019C161.447 31.8646 161.261 31.7874 161.067 31.7874C160.872 31.7874 160.686 31.8646 160.549 32.0019C160.411 32.1393 160.334 32.3256 160.334 32.5199H159.466ZM162.667 43.6032C162.667 44.0277 162.499 44.4349 162.199 44.7351C161.898 45.0353 161.491 45.2039 161.067 45.2039C160.642 45.2039 160.235 45.0353 159.935 44.7351C159.634 44.4349 159.466 44.0277 159.466 43.6032H160.334C160.334 43.7974 160.411 43.9838 160.549 44.1212C160.686 44.2585 160.872 44.3357 161.067 44.3357C161.261 44.3357 161.447 44.2585 161.585 44.1212C161.722 43.9838 161.799 43.7974 161.799 43.6032H162.667ZM161.067 45.2039C160.642 45.2039 160.235 45.0353 159.935 44.7351C159.634 44.4349 159.466 44.0277 159.466 43.6032V32.5199C159.466 32.0954 159.634 31.6882 159.935 31.388C160.235 31.0878 160.642 30.9192 161.067 30.9192V31.7874C160.872 31.7874 160.686 31.8646 160.549 32.0019C160.411 32.1393 160.334 32.3256 160.334 32.5199V43.6032C160.334 43.7974 160.411 43.9838 160.549 44.1212C160.686 44.2585 160.872 44.3357 161.067 44.3357V45.2039ZM161.067 30.9192C161.491 30.9192 161.898 31.0878 162.199 31.388C162.499 31.6882 162.667 32.0954 162.667 32.5199V43.6032C162.667 44.0277 162.499 44.4349 162.199 44.7351C161.898 45.0353 161.491 45.2039 161.067 45.2039V44.3357C161.261 44.3357 161.447 44.2585 161.585 44.1212C161.722 43.9838 161.799 43.7974 161.799 43.6032V32.5199C161.799 32.3256 161.722 32.1393 161.585 32.0019C161.447 31.8646 161.261 31.7874 161.067 31.7874V30.9192Z" fill="#1B271D"/>
</g>
<path d="M190.945 38.0622C190.945 35.4849 188.856 33.3956 186.279 33.3956C183.701 33.3956 181.612 35.4849 181.612 38.0622C181.612 40.6396 183.701 42.7289 186.279 42.7289C188.856 42.7289 190.945 40.6396 190.945 38.0622Z" fill="#303030" stroke="#19C77F" stroke-width="0.583442"/>
<path d="M183.654 38.0626C183.654 36.6128 184.829 35.4377 186.279 35.4377C187.729 35.4377 188.904 36.6128 188.904 38.0626C188.904 39.5123 187.729 40.6876 186.279 40.6876C184.829 40.6876 183.654 39.5123 183.654 38.0626Z" fill="#83FF49"/>
<mask id="mask6_29_2935" style="mask-type:luminance" maskUnits="userSpaceOnUse" x="183" y="35" width="6" height="6">
<path d="M183.654 38.0626C183.654 36.6128 184.829 35.4377 186.279 35.4377C187.729 35.4377 188.904 36.6128 188.904 38.0626C188.904 39.5123 187.729 40.6876 186.279 40.6876C184.829 40.6876 183.654 39.5123 183.654 38.0626Z" fill="white"/>
</mask>
<g mask="url(#mask6_29_2935)">
<path d="M183.22 38.0621C183.22 36.3725 184.589 35.0031 186.279 35.0031C187.968 35.0031 189.338 36.3725 189.338 38.0621H188.47C188.47 36.8522 187.489 35.8714 186.279 35.8714C185.069 35.8714 184.088 36.8522 184.088 38.0621H183.22ZM189.338 38.0621C189.338 39.7516 187.968 41.1213 186.279 41.1213C184.589 41.1213 183.22 39.7516 183.22 38.0621H184.088C184.088 39.2722 185.069 40.253 186.279 40.253C187.489 40.253 188.47 39.2722 188.47 38.0621H189.338ZM186.279 41.1213C184.589 41.1213 183.22 39.7516 183.22 38.0621C183.22 36.3725 184.589 35.0031 186.279 35.0031V35.8714C185.069 35.8714 184.088 36.8522 184.088 38.0621C184.088 39.2722 185.069 40.253 186.279 40.253V41.1213ZM186.279 35.0031C187.968 35.0031 189.338 36.3725 189.338 38.0621C189.338 39.7516 187.968 41.1213 186.279 41.1213V40.253C187.489 40.253 188.47 39.2722 188.47 38.0621C188.47 36.8522 187.489 35.8714 186.279 35.8714V35.0031Z" fill="#00A05E"/>
</g>
<path d="M141.071 24.9641H196.487" stroke="#00804B" stroke-width="1.16667" stroke-linecap="round"/>
<path fill-rule="evenodd" clip-rule="evenodd" d="M141.103 49.8987V53.6967C141.103 60.4097 146.545 65.8517 153.258 65.8517H184.948C191.661 65.8517 197.103 60.4097 197.103 53.6967V49.8987C197.103 56.6117 191.661 62.0537 184.948 62.0537H153.258C146.545 62.0537 141.103 56.6117 141.103 49.8987Z" fill="black" fill-opacity="0.2"/>
<path fill-rule="evenodd" clip-rule="evenodd" d="M153.258 9.85178C146.545 9.85178 141.103 15.2938 141.103 22.0068V22.3272C141.759 16.2336 146.919 11.489 153.187 11.489H184.948C191.661 11.489 197.103 16.931 197.103 23.6441V22.0068C197.103 15.2938 191.661 9.85178 184.948 9.85178H153.258Z" fill="white" fill-opacity="0.3"/>
</g>
</g>
<g clip-path="url(#clip4_29_2935)">
<path d="M205.287 21.9258C205.287 15.2127 210.729 9.77072 217.442 9.77072H249.132C255.845 9.77072 261.287 15.2127 261.287 21.9258V53.6155C261.287 60.3285 255.845 65.7707 249.132 65.7707H217.442C210.729 65.7707 205.287 60.3285 205.287 53.6157V21.9258Z" fill="white"/>
<path d="M205.287 21.9258C205.287 15.2129 210.729 9.77072 217.442 9.77072H249.132C255.845 9.77072 261.287 15.2129 261.287 21.9258V26.2208H205.287V21.9258Z" fill="#CF74A2"/>
<path d="M222.641 22.7864L225.328 15.3204H227.047L229.734 22.7864H228.238L227.658 21.0623H224.717L224.132 22.7866L222.641 22.7864ZM225.059 19.9907H227.311L226.488 17.5571C226.385 17.2395 226.293 16.9183 226.213 16.594H226.161C226.078 16.918 225.985 17.2391 225.882 17.5571L225.059 19.9907ZM231.039 22.7864V15.3258H233.866C234.428 15.3258 234.905 15.4189 235.295 15.6054C235.685 15.7883 235.98 16.0505 236.18 16.3924C236.38 16.734 236.481 17.131 236.481 17.5832C236.481 18.039 236.38 18.441 236.18 18.7896C235.983 19.1381 235.687 19.4075 235.29 19.5972C234.896 19.7871 234.421 19.882 233.866 19.882H232.395V22.7868H231.039V22.7864ZM233.747 18.7583C234.04 18.7583 234.289 18.7116 234.492 18.6185C234.7 18.5252 234.858 18.3923 234.969 18.2198C235.083 18.0472 235.139 17.8349 235.139 17.5829C235.139 17.3377 235.084 17.1308 234.974 16.9615C234.863 16.7924 234.703 16.6648 234.492 16.5784C234.285 16.4922 234.037 16.4491 233.747 16.4491H232.395V18.7583H233.747ZM237.915 22.7864V15.3206H241.104C241.605 15.3206 242.033 15.4052 242.388 15.5741C242.744 15.7434 243.015 15.985 243.201 16.2991C243.388 16.6131 243.481 16.9806 243.481 17.4019C243.481 17.6989 243.427 17.968 243.32 18.2096C243.22 18.447 243.061 18.6553 242.859 18.8154C242.656 18.9743 242.413 19.0865 242.129 19.1518V19.1935C242.53 19.2797 242.83 19.4696 243.03 19.763C243.234 20.0563 243.343 20.4602 243.357 20.9746V21.104C243.36 21.142 243.363 21.1834 243.367 21.2282C243.381 21.6011 243.408 21.8997 243.45 22.1239C243.491 22.3449 243.545 22.5277 243.61 22.6729V22.7866H242.217C242.159 22.6451 242.112 22.4743 242.078 22.2741C242.043 22.074 242.014 21.8151 241.989 21.4975L241.979 21.3163L241.969 21.1246C241.958 20.7899 241.905 20.5277 241.808 20.3376C241.715 20.1479 241.577 20.015 241.394 19.9391C241.211 19.8596 240.973 19.8199 240.68 19.8199H239.313V22.7868H237.915V22.7864ZM240.866 18.691C241.115 18.691 241.329 18.6496 241.508 18.5666C241.686 18.4885 241.834 18.3562 241.933 18.1887C242.036 18.0162 242.088 17.8074 242.088 17.5623C242.088 17.3138 242.034 17.1065 241.927 16.9409C241.826 16.7774 241.676 16.6504 241.498 16.5784C241.318 16.5025 241.108 16.4645 240.866 16.4645H239.313V18.691H240.866Z" fill="#CBCBCB"/>
<path d="M222.641 22.352L225.328 14.886H227.047L229.734 22.352H228.238L227.658 20.6279H224.717L224.132 22.3522L222.641 22.352ZM225.059 19.5563H227.311L226.488 17.1227C226.385 16.8051 226.293 16.4839 226.213 16.1596H226.161C226.078 16.4835 225.985 16.8047 225.882 17.1227L225.059 19.5563ZM231.039 22.352V14.8914H233.866C234.428 14.8914 234.905 14.9845 235.295 15.1709C235.685 15.3539 235.98 15.6161 236.18 15.958C236.38 16.2996 236.481 16.6966 236.481 17.1487C236.481 17.6046 236.38 18.0065 236.18 18.3551C235.983 18.7037 235.687 18.9731 235.29 19.1628C234.896 19.3527 234.421 19.4476 233.866 19.4476H232.395V22.3524H231.039V22.352ZM233.747 18.3239C234.04 18.3239 234.289 18.2772 234.492 18.1841C234.7 18.0908 234.858 17.9579 234.969 17.7854C235.083 17.6128 235.139 17.4005 235.139 17.1485C235.139 16.9033 235.084 16.6964 234.974 16.5271C234.863 16.358 234.703 16.2304 234.492 16.144C234.285 16.0578 234.037 16.0146 233.747 16.0146H232.395V18.3239H233.747ZM237.915 22.352V14.8862H241.104C241.605 14.8862 242.033 14.9708 242.388 15.1397C242.744 15.309 243.015 15.5506 243.201 15.8647C243.388 16.1787 243.481 16.5462 243.481 16.9675C243.481 17.2644 243.427 17.5336 243.32 17.7752C243.22 18.0126 243.061 18.2209 242.859 18.381C242.656 18.5398 242.413 18.6521 242.129 18.7174V18.7591C242.53 18.8452 242.83 19.0352 243.03 19.3286C243.234 19.6219 243.343 20.0258 243.357 20.5402V20.6696C243.36 20.7076 243.363 20.749 243.367 20.7937C243.381 21.1666 243.408 21.4653 243.45 21.6895C243.491 21.9105 243.545 22.0932 243.61 22.2385V22.3522H242.217C242.159 22.2107 242.112 22.0398 242.078 21.8397C242.043 21.6396 242.014 21.3807 241.989 21.0631L241.979 20.8819L241.969 20.6902C241.958 20.3555 241.905 20.0933 241.808 19.9032C241.715 19.7135 241.577 19.5806 241.394 19.5047C241.211 19.4252 240.973 19.3855 240.68 19.3855H239.313V22.3524H237.915V22.352ZM240.866 18.2566C241.115 18.2566 241.329 18.2151 241.508 18.1322C241.686 18.0541 241.834 17.9218 241.933 17.7543C242.036 17.5818 242.088 17.373 242.088 17.1279C242.088 16.8794 242.034 16.6721 241.927 16.5065C241.826 16.3429 241.676 16.2159 241.498 16.144C241.318 16.068 241.108 16.03 240.866 16.03H239.313V18.2566H240.866Z" fill="white"/>
<path d="M225.615 56.7181C223.62 56.7181 221.92 56.2499 220.516 55.3137C219.112 54.3665 218.047 53.0012 217.323 51.2181C216.599 49.435 216.236 47.284 216.236 44.7653V43.8292C216.236 41.2994 216.599 39.143 217.323 37.3599C218.047 35.5655 219.106 34.2002 220.499 33.264C221.904 32.3168 223.603 31.8432 225.598 31.8432C227.593 31.8432 229.287 32.3112 230.68 33.2473C232.073 34.1835 233.126 35.5488 233.839 37.3431C234.552 39.1373 234.909 41.2994 234.909 43.8292V44.7653C234.909 47.284 234.552 49.4404 233.839 51.2348C233.126 53.0179 232.073 54.3776 230.68 55.3137C229.298 56.2499 227.609 56.7181 225.615 56.7181ZM225.631 52.9901C226.712 52.9901 227.609 52.6947 228.323 52.1041C229.047 51.5022 229.587 50.6162 229.944 49.4461C230.312 48.2649 230.496 46.8048 230.496 45.0664V43.5283C230.496 41.7897 230.312 40.3298 229.944 39.1484C229.576 37.9672 229.03 37.0755 228.306 36.4738C227.593 35.8719 226.695 35.5711 225.615 35.5711C224.544 35.5711 223.642 35.8719 222.906 36.4738C222.171 37.0644 221.614 37.9505 221.235 39.1317C220.867 40.3131 220.683 41.7786 220.683 43.5283V45.0664C220.683 46.7937 220.873 48.2482 221.251 49.4294C221.63 50.5995 222.182 51.4855 222.906 52.0874C223.642 52.6891 224.55 52.9901 225.631 52.9901ZM244.605 56.3334V37.6273H244.421C243.652 38.3405 242.766 38.909 241.763 39.3324C240.76 39.7446 239.651 40.0123 238.436 40.1347V36.3736C239.417 36.2396 240.331 35.9779 241.178 35.5878C242.036 35.1865 242.8 34.7018 243.468 34.1333C244.148 33.5538 244.733 32.9187 245.223 32.2276H248.951V56.3334H244.605Z" fill="#AF5883"/>
<path d="M225.615 55.8498C223.62 55.8498 221.92 55.3816 220.516 54.4455C219.112 53.4983 218.047 52.133 217.323 50.3499C216.599 48.5668 216.236 46.4158 216.236 43.8971V42.9609C216.236 40.4312 216.599 38.2747 217.323 36.4916C218.047 34.6972 219.106 33.332 220.499 32.3958C221.904 31.4486 223.603 30.975 225.598 30.975C227.593 30.975 229.287 31.4429 230.68 32.3791C232.073 33.3153 233.126 34.6805 233.839 36.4749C234.552 38.2691 234.909 40.4312 234.909 42.9609V43.8971C234.909 46.4158 234.552 48.5722 233.839 50.3666C233.126 52.1497 232.073 53.5093 230.68 54.4455C229.298 55.3816 227.609 55.8498 225.615 55.8498ZM225.631 52.1219C226.712 52.1219 227.609 51.8265 228.323 51.2359C229.047 50.634 229.587 49.748 229.944 48.5779C230.312 47.3966 230.496 45.9365 230.496 44.1981V42.6601C230.496 40.9215 230.312 39.4616 229.944 38.2802C229.576 37.0989 229.03 36.2073 228.306 35.6056C227.593 35.0037 226.695 34.7029 225.615 34.7029C224.544 34.7029 223.642 35.0037 222.906 35.6056C222.171 36.1962 221.614 37.0822 221.235 38.2634C220.867 39.4449 220.683 40.9104 220.683 42.6601V44.1981C220.683 45.9255 220.873 47.3799 221.251 48.5611C221.63 49.7313 222.182 50.6173 222.906 51.2192C223.642 51.8209 224.55 52.1219 225.631 52.1219ZM244.605 55.4652V36.759H244.421C243.652 37.4723 242.766 38.0407 241.763 38.4642C240.76 38.8764 239.651 39.144 238.436 39.2664V35.5053C239.417 35.3714 240.331 35.1096 241.178 34.7196C242.036 34.3183 242.8 33.8336 243.468 33.2651C244.148 32.6856 244.733 32.0505 245.223 31.3594H248.951V55.4652H244.605Z" fill="#CF74A2"/>
<path fill-rule="evenodd" clip-rule="evenodd" d="M205.32 49.8987V53.6967C205.32 60.4097 210.762 65.8517 217.475 65.8517H249.165C255.878 65.8517 261.32 60.4097 261.32 53.6969V49.8987C261.32 56.6117 255.878 62.0537 249.165 62.0537H217.475C210.762 62.0537 205.32 56.6117 205.32 49.8987Z" fill="black" fill-opacity="0.2"/>
<path fill-rule="evenodd" clip-rule="evenodd" d="M217.475 9.85178C210.762 9.85178 205.32 15.294 205.32 22.0068V22.3272C205.976 16.2336 211.136 11.489 217.404 11.489H249.165C255.878 11.489 261.32 16.931 261.32 23.6441V22.007C261.32 15.294 255.878 9.85199 249.165 9.85199L217.475 9.85178Z" fill="white" fill-opacity="0.3"/>
</g>
</g>
</g>
<defs>
<filter id="filter0_dd_29_2935" x="0" y="0.770721" width="274" height="82" filterUnits="userSpaceOnUse" color-interpolation-filters="sRGB">
<feFlood flood-opacity="0" result="BackgroundImageFix"/>
<feColorMatrix in="SourceAlpha" type="matrix" values="0 0 0 0 0 0 0 0 0 0 0 0 0 0 0 0 0 0 127 0" result="hardAlpha"/>
<feMorphology radius="2" operator="erode" in="SourceAlpha" result="effect1_dropShadow_29_2935"/>
<feOffset dy="2"/>
<feGaussianBlur stdDeviation="2"/>
<feComposite in2="hardAlpha" operator="out"/>
<feColorMatrix type="matrix" values="0 0 0 0 0 0 0 0 0 0 0 0 0 0 0 0 0 0 0.1 0"/>
<feBlend mode="normal" in2="BackgroundImageFix" result="effect1_dropShadow_29_2935"/>
<feColorMatrix in="SourceAlpha" type="matrix" values="0 0 0 0 0 0 0 0 0 0 0 0 0 0 0 0 0 0 127 0" result="hardAlpha"/>
<feMorphology radius="1" operator="erode" in="SourceAlpha" result="effect2_dropShadow_29_2935"/>
<feOffset dy="4"/>
<feGaussianBlur stdDeviation="3"/>
<feComposite in2="hardAlpha" operator="out"/>
<feColorMatrix type="matrix" values="0 0 0 0 0 0 0 0 0 0 0 0 0 0 0 0 0 0 0.1 0"/>
<feBlend mode="normal" in2="effect1_dropShadow_29_2935" result="effect2_dropShadow_29_2935"/>
<feBlend mode="normal" in="SourceGraphic" in2="effect2_dropShadow_29_2935" result="shape"/>
</filter>
<clipPath id="clip0_29_2935">
<rect x="5" y="1.77072" width="264" height="72" rx="16" fill="white"/>
</clipPath>
<clipPath id="clip1_29_2935">
<rect width="56" height="258" fill="white" transform="translate(13 -91.2293)"/>
</clipPath>
<clipPath id="clip2_29_2935">
<rect width="56" height="258" fill="white" transform="translate(77 -91.2293)"/>
</clipPath>
<clipPath id="clip3_29_2935">
<rect width="56" height="258" fill="white" transform="translate(141 -91.2293)"/>
</clipPath>
<clipPath id="clip4_29_2935">
<rect width="56" height="259" fill="white" transform="translate(205 -91.7293)"/>
</clipPath>
</defs>
</svg>
