<svg width="41" height="41" viewBox="0 0 41 41" fill="none" xmlns="http://www.w3.org/2000/svg">
<g clip-path="url(#clip0_29_2552)">
<mask id="mask0_29_2552" style="mask-type:luminance" maskUnits="userSpaceOnUse" x="0" y="0" width="41" height="41">
<path d="M40.7257 0.581055H0.880188V40.4266H40.7257V0.581055Z" fill="white"/>
</mask>
<g mask="url(#mask0_29_2552)">
<path d="M0.880188 9.2297C0.880188 4.45319 4.75233 0.581055 9.52884 0.581055H32.077C36.8535 0.581055 40.7256 4.45319 40.7256 9.2297V18.4285V31.7778C40.7256 36.5543 36.8535 40.4266 32.077 40.4266H9.52884C4.75233 40.4266 0.880188 36.5543 0.880188 31.778V9.2297Z" fill="#FFFFFE"/>
<path d="M22.8792 0.581055H32.077C36.8535 0.581055 40.7256 4.45319 40.7256 9.2297V18.4285H26.5857C24.5386 18.4285 22.8792 16.769 22.8792 14.7219V0.581055Z" fill="#4368E3"/>
<path d="M22.8782 0.581055L40.7256 18.4285H25.7242C24.1523 18.4285 22.8782 17.1542 22.8782 15.5824V0.581055Z" fill="white"/>
<path d="M23.8039 0.582275L40.7256 17.5116V18.4608L22.8741 0.582275H23.8039Z" fill="#C24228"/>
<path fill-rule="evenodd" clip-rule="evenodd" d="M0.903381 29.1338V31.8362C0.903381 36.6127 4.77552 40.4848 9.55203 40.4848H32.1003C36.8768 40.4848 40.749 36.6127 40.749 31.8362V29.1338C40.749 33.9103 36.8768 37.7824 32.1003 37.7824H9.55203C4.77552 37.7824 0.903381 33.9103 0.903381 29.1338Z" fill="#CCCCCB"/>
<path fill-rule="evenodd" clip-rule="evenodd" d="M9.55179 0.638672C4.77526 0.638672 0.903137 4.5108 0.903137 9.28731V9.51525C1.37023 5.17944 5.04169 1.80357 9.50161 1.80357H32.1001C36.8766 1.80357 40.7487 5.6757 40.7487 10.4522V9.28731C40.7487 4.5108 36.8766 0.638672 32.1001 0.638672H9.55179Z" fill="white" fill-opacity="0.3"/>
<path fill-rule="evenodd" clip-rule="evenodd" d="M22.8147 0.582275V15.5976C22.8147 17.1756 24.094 18.4548 25.6719 18.4548H40.7837V19.5359H25.6719C23.4969 19.5359 21.7336 17.7726 21.7336 15.5976V0.582275H22.8147Z" fill="#CCCCCB"/>
</g>
</g>
<defs>
<clipPath id="clip0_29_2552">
<rect width="40" height="39.8456" fill="white" transform="translate(0.830017 0.581055)"/>
</clipPath>
</defs>
</svg>
