<svg width="41" height="41" viewBox="0 0 41 41" fill="none" xmlns="http://www.w3.org/2000/svg">
<g clip-path="url(#clip0_29_2488)">
<path d="M0.190308 9.44259C0.190308 4.66608 4.06243 0.793945 8.83896 0.793945H31.3871C36.1637 0.793945 40.0358 4.66608 40.0358 9.44259V18.6414V31.9907C40.0358 36.7672 36.1637 40.6395 31.3871 40.6395H8.83896C4.06245 40.6395 0.190308 36.7672 0.190308 31.9909V9.44259Z" fill="white"/>
<path d="M0.190186 9.4426C0.190186 4.66607 4.06233 0.793945 8.83883 0.793945H31.3871C36.1636 0.793945 40.0357 4.66609 40.0357 9.4426V12.4986H0.190186V9.4426Z" fill="#CF74A2"/>
<path d="M12.5377 10.0546L14.4498 4.74219H15.6729L17.5849 10.0546H16.5202L16.1075 8.82782H14.015L13.5987 10.0546H12.5377ZM14.2582 8.06521H15.8607L15.275 6.33371C15.2087 6.13232 15.1436 5.9039 15.0797 5.64847H15.0429C14.9766 5.9039 14.9103 6.13232 14.8439 6.33371L14.2582 8.06521Z" fill="#CBCBCB"/>
<path d="M18.5132 10.0551V4.74634H20.5248C20.9251 4.74634 21.2639 4.81265 21.5414 4.94527C21.819 5.07545 22.029 5.26211 22.1716 5.50526C22.314 5.74841 22.3852 6.03085 22.3852 6.35259C22.3852 6.67678 22.314 6.96291 22.1716 7.21097C22.0315 7.45903 21.8202 7.6506 21.5379 7.78569C21.2579 7.92076 20.9201 7.98831 20.5248 7.98831H19.4784V10.0551H18.5132ZM20.44 7.18887C20.6488 7.18887 20.8256 7.15571 20.9705 7.0894C21.1178 7.02308 21.2309 6.92853 21.3095 6.80572C21.3904 6.68292 21.431 6.53188 21.431 6.35259C21.431 6.17821 21.3916 6.03085 21.313 5.91049C21.2346 5.79015 21.1203 5.69928 20.9705 5.63787C20.8231 5.57648 20.6463 5.54578 20.44 5.54578H19.4784V7.18887H20.44Z" fill="#CBCBCB"/>
<path d="M23.4056 10.0546V4.74219H25.675C26.0311 4.74219 26.3357 4.80236 26.5887 4.92271C26.8416 5.04305 27.0344 5.21498 27.167 5.43848C27.2997 5.66199 27.3659 5.92355 27.3659 6.22319C27.3659 6.4344 27.328 6.62597 27.2518 6.79789C27.1781 6.96982 27.0688 7.11349 26.9239 7.22894C26.7789 7.34191 26.6058 7.42174 26.4044 7.4684V7.49786C26.6893 7.55927 26.9029 7.69436 27.0455 7.90311C27.1903 8.11189 27.2677 8.39924 27.2776 8.76518C27.2776 8.79712 27.2776 8.82782 27.2776 8.85729C27.2801 8.8843 27.2824 8.91379 27.2849 8.94571C27.2948 9.21096 27.3144 9.42341 27.3439 9.58305C27.3734 9.74024 27.4114 9.8704 27.458 9.97355V10.0546H26.4671C26.4253 9.95391 26.3922 9.83233 26.3676 9.68989C26.3431 9.54744 26.3221 9.36324 26.3049 9.13728C26.3025 9.09553 26.3 9.05255 26.2975 9.00833C26.2951 8.96413 26.2927 8.9187 26.2903 8.87203C26.2829 8.63379 26.2447 8.44713 26.176 8.31204C26.1097 8.17697 26.0115 8.0824 25.8813 8.02838C25.7511 7.97189 25.5817 7.94364 25.3729 7.94364H24.4002V10.0546H23.4056ZM25.5056 7.14052C25.6824 7.14052 25.8347 7.11104 25.9624 7.0521C26.0924 6.99315 26.1931 6.90352 26.2645 6.78316C26.3381 6.66037 26.3749 6.51176 26.3749 6.33738C26.3749 6.16055 26.3369 6.0132 26.2608 5.8953C26.1871 5.77742 26.0852 5.69145 25.955 5.63742C25.8273 5.58339 25.6775 5.55637 25.5056 5.55637H24.4002V7.14052H25.5056Z" fill="#CBCBCB"/>
<path d="M12.5376 9.74626L14.4496 4.43384H15.6728L17.5848 9.74626H16.5201L16.1074 8.51947H14.0149L13.5986 9.74626H12.5376ZM14.2581 7.75687H15.8606L15.2749 6.02536C15.2085 5.82397 15.1435 5.59555 15.0796 5.34012H15.0428C14.9765 5.59555 14.9101 5.82397 14.8438 6.02536L14.2581 7.75687Z" fill="white"/>
<path d="M18.5132 9.74623V4.4375H20.5248C20.9251 4.4375 21.2639 4.50382 21.5414 4.63643C21.819 4.76661 22.029 4.95327 22.1716 5.19642C22.314 5.43957 22.3852 5.72201 22.3852 6.04375C22.3852 6.36794 22.314 6.65407 22.1716 6.90213C22.0315 7.15019 21.8202 7.34176 21.5379 7.47685C21.2579 7.61192 20.9201 7.67948 20.5248 7.67948H19.4784V9.74623H18.5132ZM20.44 6.88003C20.6488 6.88003 20.8256 6.84687 20.9705 6.78056C21.1178 6.71424 21.2309 6.61969 21.3095 6.49688C21.3904 6.37409 21.431 6.22304 21.431 6.04375C21.431 5.86938 21.3916 5.72201 21.313 5.60165C21.2346 5.48131 21.1203 5.39044 20.9705 5.32904C20.8231 5.26765 20.6463 5.23694 20.44 5.23694H19.4784V6.88003H20.44Z" fill="white"/>
<path d="M23.4056 9.74626V4.43384H25.675C26.0311 4.43384 26.3357 4.49401 26.5887 4.61436C26.8416 4.7347 27.0344 4.90663 27.167 5.13013C27.2997 5.35364 27.3659 5.6152 27.3659 5.91484C27.3659 6.12605 27.328 6.31762 27.2518 6.48954C27.1781 6.66147 27.0688 6.80514 26.9239 6.92059C26.7789 7.03356 26.6058 7.11339 26.4044 7.16005V7.18951C26.6893 7.25092 26.9029 7.38601 27.0455 7.59476C27.1903 7.80354 27.2677 8.09089 27.2776 8.45683C27.2776 8.48877 27.2776 8.51947 27.2776 8.54894C27.2801 8.57595 27.2824 8.60544 27.2849 8.63736C27.2948 8.90261 27.3144 9.11506 27.3439 9.2747C27.3734 9.43189 27.4114 9.56205 27.458 9.66521V9.74626H26.4671C26.4253 9.64556 26.3922 9.52398 26.3676 9.38154C26.3431 9.23909 26.3221 9.05489 26.3049 8.82893C26.3025 8.78718 26.3 8.7442 26.2975 8.69998C26.2951 8.65578 26.2927 8.61035 26.2903 8.56368C26.2829 8.32544 26.2447 8.13878 26.176 8.00369C26.1097 7.86862 26.0115 7.77405 25.8813 7.72003C25.7511 7.66354 25.5817 7.63529 25.3729 7.63529H24.4002V9.74626H23.4056ZM25.5056 6.83217C25.6824 6.83217 25.8347 6.80269 25.9624 6.74375C26.0924 6.6848 26.1931 6.59517 26.2645 6.47481C26.3381 6.35202 26.3749 6.20341 26.3749 6.02903C26.3749 5.8522 26.3369 5.70485 26.2608 5.58695C26.1871 5.46907 26.0852 5.3831 25.955 5.32907C25.8273 5.27504 25.6775 5.24802 25.5056 5.24802H24.4002V6.83217H25.5056Z" fill="white"/>
<path d="M14.6536 34.1982C13.2341 34.1982 12.0249 33.865 11.0257 33.1989C10.0266 32.525 9.26928 31.5535 8.75386 30.2848C8.23843 29.0161 7.98071 27.4856 7.98071 25.6935V25.0274C7.98071 23.2274 8.23843 21.693 8.75386 20.4243C9.26928 19.1475 10.0226 18.1761 11.0138 17.51C12.013 16.836 13.2222 16.499 14.6417 16.499C16.0611 16.499 17.2665 16.832 18.2577 17.4981C19.2489 18.1642 19.9982 19.1356 20.5057 20.4124C21.0132 21.689 21.2669 23.2274 21.2669 25.0274V25.6935C21.2669 27.4856 21.0132 29.0199 20.5057 30.2967C19.9982 31.5654 19.2489 32.5328 18.2577 33.1989C17.2743 33.865 16.0729 34.1982 14.6536 34.1982ZM14.6655 31.5457C15.4346 31.5457 16.0729 31.3355 16.5804 30.9152C17.096 30.487 17.4805 29.8566 17.7343 29.024C17.9959 28.1835 18.1268 27.1446 18.1268 25.9077V24.8133C18.1268 23.5762 17.9959 22.5375 17.7343 21.6969C17.4726 20.8564 17.0841 20.222 16.5685 19.7938C16.0611 19.3656 15.4227 19.1515 14.6536 19.1515C13.8923 19.1515 13.25 19.3656 12.7266 19.7938C12.2033 20.2141 11.8068 20.8445 11.5372 21.685C11.2755 22.5256 11.1447 23.5684 11.1447 24.8133V25.9077C11.1447 27.1367 11.2795 28.1716 11.5491 29.0121C11.8187 29.8447 12.2112 30.4751 12.7266 30.9033C13.25 31.3315 13.8963 31.5457 14.6655 31.5457Z" fill="#80385C"/>
<path d="M28.1658 33.9247V20.6147H28.035C27.4878 21.1222 26.8573 21.5267 26.1437 21.828C25.43 22.1213 24.641 22.3117 23.7767 22.3988V19.7227C24.4745 19.6274 25.1247 19.4411 25.7275 19.1636C26.338 18.878 26.8811 18.5332 27.357 18.1287C27.8407 17.7163 28.257 17.2644 28.6059 16.7727H31.2584V33.9247H28.1658Z" fill="#80385C"/>
<path d="M14.6537 33.58C13.2343 33.58 12.025 33.2469 11.0258 32.5808C10.0267 31.9068 9.26941 30.9354 8.75398 29.6667C8.23855 28.3979 7.98083 26.8674 7.98083 25.0753V24.4092C7.98083 22.6092 8.23855 21.0749 8.75398 19.8061C9.26941 18.5294 10.0227 17.5579 11.0139 16.8918C12.0131 16.2179 13.2224 15.8809 14.6418 15.8809C16.0612 15.8809 17.2666 16.2139 18.2578 16.8799C19.249 17.546 19.9983 18.5175 20.5058 19.7942C21.0133 21.0708 21.267 22.6092 21.267 24.4092V25.0753C21.267 26.8674 21.0133 28.4018 20.5058 29.6786C19.9983 30.9473 19.249 31.9147 18.2578 32.5808C17.2745 33.2469 16.0731 33.58 14.6537 33.58ZM14.6656 30.9275C15.4348 30.9275 16.0731 30.7173 16.5806 30.2971C17.0961 29.8688 17.4806 29.2384 17.7344 28.4058C17.996 27.5654 18.127 26.5264 18.127 25.2895V24.1952C18.127 22.9581 17.996 21.9193 17.7344 21.0787C17.4728 20.2382 17.0842 19.6038 16.5687 19.1757C16.0612 18.7474 15.4229 18.5334 14.6537 18.5334C13.8924 18.5334 13.2501 18.7474 12.7268 19.1757C12.2034 19.5959 11.8069 20.2264 11.5373 21.0668C11.2756 21.9074 11.1448 22.9502 11.1448 24.1952V25.2895C11.1448 26.5186 11.2796 27.5535 11.5492 28.3939C11.8188 29.2265 12.2113 29.8569 12.7268 30.2852C13.2501 30.7133 13.8964 30.9275 14.6656 30.9275Z" fill="#CF74A2"/>
<path d="M28.1658 33.3072V19.9972H28.035C27.4878 20.5047 26.8573 20.9092 26.1437 21.2105C25.43 21.5038 24.641 21.6942 23.7767 21.7813V19.1052C24.4745 19.0099 25.1247 18.8236 25.7275 18.5461C26.338 18.2606 26.8811 17.9157 27.357 17.5112C27.8407 17.0989 28.257 16.647 28.6059 16.1553H31.2584V33.3072H28.1658Z" fill="#CF74A2"/>
<path fill-rule="evenodd" clip-rule="evenodd" d="M0.213501 29.3467V32.0491C0.213501 36.8256 4.08564 40.6977 8.86215 40.6977H31.4105C36.187 40.6977 40.0591 36.8256 40.0591 32.0492V29.3467C40.0591 34.1232 36.187 37.9953 31.4105 37.9953H8.86215C4.08564 37.9953 0.213501 34.1232 0.213501 29.3467Z" fill="black" fill-opacity="0.2"/>
<path fill-rule="evenodd" clip-rule="evenodd" d="M8.86191 0.851562C4.08539 0.851562 0.213257 4.72369 0.213257 9.50021V9.72815C0.68035 5.39232 4.35181 2.01646 8.81173 2.01646H31.4102C36.1867 2.01646 40.0589 5.8886 40.0589 10.6651V9.50021C40.0589 4.72369 36.1867 0.851562 31.4102 0.851562H8.86191Z" fill="white" fill-opacity="0.3"/>
</g>
<defs>
<clipPath id="clip0_29_2488">
<rect width="40" height="40" fill="white" transform="translate(0.140015 0.793945)"/>
</clipPath>
</defs>
</svg>
