<svg width="40" height="41" viewBox="0 0 40 41" fill="none" xmlns="http://www.w3.org/2000/svg">
<g clip-path="url(#clip0_29_2506)">
<mask id="mask0_29_2506" style="mask-type:luminance" maskUnits="userSpaceOnUse" x="0" y="0" width="40" height="41">
<path d="M31.2471 0.671143H8.6988C3.92229 0.671143 0.0501556 4.54327 0.0501556 9.31979V31.8681C0.0501556 36.6446 3.92229 40.5167 8.6988 40.5167H31.2471C36.0236 40.5167 39.8957 36.6446 39.8957 31.8681V9.31979C39.8957 4.54327 36.0236 0.671143 31.2471 0.671143Z" fill="white"/>
</mask>
<g mask="url(#mask0_29_2506)">
<path d="M0.0501556 9.31979C0.0501556 4.54328 3.92229 0.671143 8.6988 0.671143H31.2469C36.0235 0.671143 39.8956 4.54328 39.8956 9.31979V18.5186V31.8679C39.8956 36.6444 36.0235 40.5167 31.2469 40.5167H8.6988C3.92229 40.5167 0.0501556 36.6444 0.0501556 31.8681V9.31979Z" fill="#00A05E"/>
<g filter="url(#filter0_d_29_2506)">
<path d="M0.0501556 29.9329H39.4806" stroke="#00804B" stroke-width="0.830114" stroke-linecap="round"/>
</g>
<path d="M4.2008 15.7971H4.2008C4.7872 15.7971 5.26257 16.2725 5.26257 16.8589V24.745C5.26257 25.3314 4.7872 25.8068 4.2008 25.8068H4.2008C3.6144 25.8068 3.13902 25.3314 3.13902 24.745V16.8589C3.13902 16.2725 3.6144 15.7971 4.2008 15.7971Z" stroke="#19C77F" stroke-width="0.46332"/>
<path d="M3.37071 16.8587C3.37071 16.4002 3.74237 16.0286 4.20083 16.0286C4.6593 16.0286 5.03094 16.4002 5.03094 16.8587V24.7448C5.03094 25.2033 4.6593 25.5749 4.20083 25.5749C3.74237 25.5749 3.37071 25.2033 3.37071 24.7448V16.8587Z" fill="black" fill-opacity="0.5"/>
<mask id="mask1_29_2506" style="mask-type:luminance" maskUnits="userSpaceOnUse" x="3" y="16" width="3" height="10">
<path d="M3.37071 16.8587C3.37071 16.4002 3.74237 16.0286 4.20083 16.0286C4.6593 16.0286 5.03094 16.4002 5.03094 16.8587V24.7448C5.03094 25.2033 4.6593 25.5749 4.20083 25.5749C3.74237 25.5749 3.37071 25.2033 3.37071 24.7448V16.8587Z" fill="#1B271D"/>
</mask>
<g mask="url(#mask1_29_2506)">
<path d="M3.06187 16.859C3.06187 16.23 3.57182 15.72 4.20087 15.72C4.82992 15.72 5.33987 16.23 5.33987 16.859H4.72211C4.72211 16.5712 4.48875 16.3378 4.20087 16.3378C3.91301 16.3378 3.67963 16.5712 3.67963 16.859H3.06187ZM5.33987 24.7451C5.33987 25.3741 4.82992 25.884 4.20087 25.884C3.57182 25.884 3.06187 25.3741 3.06187 24.7451H3.67963C3.67963 25.0329 3.91301 25.2663 4.20087 25.2663C4.48875 25.2663 4.72211 25.0329 4.72211 24.7451H5.33987ZM4.20087 25.884C3.57182 25.884 3.06187 25.3741 3.06187 24.7451V16.859C3.06187 16.23 3.57182 15.72 4.20087 15.72V16.3378C3.91301 16.3378 3.67963 16.5712 3.67963 16.859V24.7451C3.67963 25.0329 3.91301 25.2663 4.20087 25.2663V25.884ZM4.20087 15.72C4.82992 15.72 5.33987 16.23 5.33987 16.859V24.7451C5.33987 25.3741 4.82992 25.884 4.20087 25.884V25.2663C4.48875 25.2663 4.72211 25.0329 4.72211 24.7451V16.859C4.72211 16.5712 4.48875 16.3378 4.20087 16.3378V15.72Z" fill="#1B271D"/>
</g>
<path d="M7.55993 15.7971H7.55993C8.14633 15.7971 8.62171 16.2725 8.62171 16.8589V24.745C8.62171 25.3314 8.14633 25.8068 7.55993 25.8068H7.55993C6.97353 25.8068 6.49815 25.3314 6.49815 24.745V16.8589C6.49815 16.2725 6.97353 15.7971 7.55993 15.7971Z" stroke="#19C77F" stroke-width="0.46332"/>
<path d="M6.72984 16.8587C6.72984 16.4002 7.1015 16.0286 7.55996 16.0286C8.01841 16.0286 8.39007 16.4002 8.39007 16.8587V24.7448C8.39007 25.2033 8.01841 25.5749 7.55996 25.5749C7.1015 25.5749 6.72984 25.2033 6.72984 24.7448V16.8587Z" fill="black" fill-opacity="0.5"/>
<mask id="mask2_29_2506" style="mask-type:luminance" maskUnits="userSpaceOnUse" x="6" y="16" width="3" height="10">
<path d="M6.72984 16.8587C6.72984 16.4002 7.1015 16.0286 7.55996 16.0286C8.01841 16.0286 8.39007 16.4002 8.39007 16.8587V24.7448C8.39007 25.2033 8.01841 25.5749 7.55996 25.5749C7.1015 25.5749 6.72984 25.2033 6.72984 24.7448V16.8587Z" fill="#1B271D"/>
</mask>
<g mask="url(#mask2_29_2506)">
<path d="M6.42101 16.859C6.42101 16.23 6.93095 15.72 7.56 15.72C8.18905 15.72 8.699 16.23 8.699 16.859H8.08124C8.08124 16.5712 7.84788 16.3378 7.56 16.3378C7.27212 16.3378 7.03877 16.5712 7.03877 16.859H6.42101ZM8.699 24.7451C8.699 25.3741 8.18905 25.884 7.56 25.884C6.93095 25.884 6.42101 25.3741 6.42101 24.7451H7.03877C7.03877 25.0329 7.27212 25.2663 7.56 25.2663C7.84788 25.2663 8.08124 25.0329 8.08124 24.7451H8.699ZM7.56 25.884C6.93095 25.884 6.42101 25.3741 6.42101 24.7451V16.859C6.42101 16.23 6.93095 15.72 7.56 15.72V16.3378C7.27212 16.3378 7.03877 16.5712 7.03877 16.859V24.7451C7.03877 25.0329 7.27212 25.2663 7.56 25.2663V25.884ZM7.56 15.72C8.18905 15.72 8.699 16.23 8.699 16.859V24.7451C8.699 25.3741 8.18905 25.884 7.56 25.884V25.2663C7.84788 25.2663 8.08124 25.0329 8.08124 24.7451V16.859C8.08124 16.5712 7.84788 16.3378 7.56 16.3378V15.72Z" fill="#1B271D"/>
</g>
<path d="M10.9188 15.7971H10.9188C11.5052 15.7971 11.9806 16.2725 11.9806 16.8589V24.745C11.9806 25.3314 11.5052 25.8068 10.9188 25.8068H10.9188C10.3324 25.8068 9.85704 25.3314 9.85704 24.745V16.8589C9.85704 16.2725 10.3324 15.7971 10.9188 15.7971Z" stroke="#19C77F" stroke-width="0.46332"/>
<path d="M10.0887 16.8587C10.0887 16.4002 10.4604 16.0286 10.9188 16.0286C11.3773 16.0286 11.749 16.4002 11.749 16.8587V24.7448C11.749 25.2033 11.3773 25.5749 10.9188 25.5749C10.4604 25.5749 10.0887 25.2033 10.0887 24.7448V16.8587Z" fill="black" fill-opacity="0.5"/>
<mask id="mask3_29_2506" style="mask-type:luminance" maskUnits="userSpaceOnUse" x="10" y="16" width="2" height="10">
<path d="M10.0887 16.8587C10.0887 16.4002 10.4604 16.0286 10.9188 16.0286C11.3773 16.0286 11.749 16.4002 11.749 16.8587V24.7448C11.749 25.2033 11.3773 25.5749 10.9188 25.5749C10.4604 25.5749 10.0887 25.2033 10.0887 24.7448V16.8587Z" fill="#1B271D"/>
</mask>
<g mask="url(#mask3_29_2506)">
<path d="M9.77989 16.859C9.77989 16.23 10.2898 15.72 10.9189 15.72C11.5479 15.72 12.0579 16.23 12.0579 16.859H11.4401C11.4401 16.5712 11.2068 16.3378 10.9189 16.3378C10.631 16.3378 10.3977 16.5712 10.3977 16.859H9.77989ZM12.0579 24.7451C12.0579 25.3741 11.5479 25.884 10.9189 25.884C10.2898 25.884 9.77989 25.3741 9.77989 24.7451H10.3977C10.3977 25.0329 10.631 25.2663 10.9189 25.2663C11.2068 25.2663 11.4401 25.0329 11.4401 24.7451H12.0579ZM10.9189 25.884C10.2898 25.884 9.77989 25.3741 9.77989 24.7451V16.859C9.77989 16.23 10.2898 15.72 10.9189 15.72V16.3378C10.631 16.3378 10.3977 16.5712 10.3977 16.859V24.7451C10.3977 25.0329 10.631 25.2663 10.9189 25.2663V25.884ZM10.9189 15.72C11.5479 15.72 12.0579 16.23 12.0579 16.859V24.7451C12.0579 25.3741 11.5479 25.884 10.9189 25.884V25.2663C11.2068 25.2663 11.4401 25.0329 11.4401 24.7451V16.859C11.4401 16.5712 11.2068 16.3378 10.9189 16.3378V15.72Z" fill="#1B271D"/>
</g>
<path d="M14.2779 15.7971H14.2779C14.8644 15.7971 15.3397 16.2725 15.3397 16.8589V24.745C15.3397 25.3314 14.8644 25.8068 14.2779 25.8068H14.2779C13.6915 25.8068 13.2162 25.3314 13.2162 24.745V16.8589C13.2162 16.2725 13.6915 15.7971 14.2779 15.7971Z" stroke="#19C77F" stroke-width="0.46332"/>
<path d="M13.4479 16.8587C13.4479 16.4002 13.8195 16.0286 14.278 16.0286C14.7364 16.0286 15.1081 16.4002 15.1081 16.8587V24.7448C15.1081 25.2033 14.7364 25.5749 14.278 25.5749C13.8195 25.5749 13.4479 25.2033 13.4479 24.7448V16.8587Z" fill="black" fill-opacity="0.5"/>
<mask id="mask4_29_2506" style="mask-type:luminance" maskUnits="userSpaceOnUse" x="13" y="16" width="3" height="10">
<path d="M13.4479 16.8587C13.4479 16.4002 13.8195 16.0286 14.278 16.0286C14.7364 16.0286 15.1081 16.4002 15.1081 16.8587V24.7448C15.1081 25.2033 14.7364 25.5749 14.278 25.5749C13.8195 25.5749 13.4479 25.2033 13.4479 24.7448V16.8587Z" fill="#1B271D"/>
</mask>
<g mask="url(#mask4_29_2506)">
<path d="M13.139 16.859C13.139 16.23 13.649 15.72 14.278 15.72C14.9071 15.72 15.417 16.23 15.417 16.859H14.7993C14.7993 16.5712 14.5659 16.3378 14.278 16.3378C13.9901 16.3378 13.7568 16.5712 13.7568 16.859H13.139ZM15.417 24.7451C15.417 25.3741 14.9071 25.884 14.278 25.884C13.649 25.884 13.139 25.3741 13.139 24.7451H13.7568C13.7568 25.0329 13.9901 25.2663 14.278 25.2663C14.5659 25.2663 14.7993 25.0329 14.7993 24.7451H15.417ZM14.278 25.884C13.649 25.884 13.139 25.3741 13.139 24.7451V16.859C13.139 16.23 13.649 15.72 14.278 15.72V16.3378C13.9901 16.3378 13.7568 16.5712 13.7568 16.859V24.7451C13.7568 25.0329 13.9901 25.2663 14.278 25.2663V25.884ZM14.278 15.72C14.9071 15.72 15.417 16.23 15.417 16.859V24.7451C15.417 25.3741 14.9071 25.884 14.278 25.884V25.2663C14.5659 25.2663 14.7993 25.0329 14.7993 24.7451V16.859C14.7993 16.5712 14.5659 16.3378 14.278 16.3378V15.72Z" fill="#1B271D"/>
</g>
<path d="M35.5376 20.8014C35.5376 18.9676 34.051 17.481 32.2171 17.481C30.3833 17.481 28.8967 18.9676 28.8967 20.8014C28.8967 22.6353 30.3833 24.1219 32.2171 24.1219C34.051 24.1219 35.5376 22.6353 35.5376 20.8014Z" fill="#303030" stroke="#19C77F" stroke-width="0.415058"/>
<path d="M30.3493 20.8012C30.3493 19.7697 31.1856 18.9336 32.2171 18.9336C33.2486 18.9336 34.0849 19.7697 34.0849 20.8012C34.0849 21.8327 33.2486 22.669 32.2171 22.669C31.1856 22.669 30.3493 21.8327 30.3493 20.8012Z" fill="#83FF49"/>
<mask id="mask5_29_2506" style="mask-type:luminance" maskUnits="userSpaceOnUse" x="30" y="18" width="5" height="5">
<path d="M30.3493 20.8012C30.3493 19.7697 31.1856 18.9336 32.2171 18.9336C33.2486 18.9336 34.0849 19.7697 34.0849 20.8012C34.0849 21.8327 33.2486 22.669 32.2171 22.669C31.1856 22.669 30.3493 21.8327 30.3493 20.8012Z" fill="#00A05E"/>
</mask>
<g mask="url(#mask5_29_2506)">
<path d="M30.0405 20.8015C30.0405 19.5994 31.015 18.625 32.2172 18.625C33.4193 18.625 34.3939 19.5994 34.3939 20.8015H33.7761C33.7761 19.9407 33.0782 19.2428 32.2172 19.2428C31.3562 19.2428 30.6583 19.9407 30.6583 20.8015H30.0405ZM34.3939 20.8015C34.3939 22.0037 33.4193 22.9782 32.2172 22.9782C31.015 22.9782 30.0405 22.0037 30.0405 20.8015H30.6583C30.6583 21.6625 31.3562 22.3604 32.2172 22.3604C33.0782 22.3604 33.7761 21.6625 33.7761 20.8015H34.3939ZM32.2172 22.9782C31.015 22.9782 30.0405 22.0037 30.0405 20.8015C30.0405 19.5994 31.015 18.625 32.2172 18.625V19.2428C31.3562 19.2428 30.6583 19.9407 30.6583 20.8015C30.6583 21.6625 31.3562 22.3604 32.2172 22.3604V22.9782ZM32.2172 18.625C33.4193 18.625 34.3939 19.5994 34.3939 20.8015C34.3939 22.0037 33.4193 22.9782 32.2172 22.9782V22.3604C33.0782 22.3604 33.7761 21.6625 33.7761 20.8015C33.7761 19.9407 33.0782 19.2428 32.2172 19.2428V18.625Z" fill="#00A05E"/>
</g>
<g filter="url(#filter1_d_29_2506)">
<path d="M0.0501556 11.4817H39.4806" stroke="#00804B" stroke-width="0.830114" stroke-linecap="round"/>
</g>
<path fill-rule="evenodd" clip-rule="evenodd" d="M0.073349 29.2239V31.9263C0.073349 36.7028 3.94548 40.5749 8.72199 40.5749H31.2703C36.0468 40.5749 39.9189 36.7028 39.9189 31.9263V29.2239C39.9189 34.0004 36.0468 37.8725 31.2703 37.8725H8.72199C3.94548 37.8725 0.073349 34.0004 0.073349 29.2239Z" fill="black" fill-opacity="0.2"/>
<path fill-rule="evenodd" clip-rule="evenodd" d="M8.72176 0.72876C3.94523 0.72876 0.0731049 4.60089 0.0731049 9.3774V9.60534C0.540199 5.26953 4.21166 1.89366 8.67158 1.89366H31.27C36.0466 1.89366 39.9187 5.76579 39.9187 10.5423V9.3774C39.9187 4.60089 36.0466 0.72876 31.27 0.72876H8.72176Z" fill="white" fill-opacity="0.3"/>
</g>
</g>
<defs>
<filter id="filter0_d_29_2506" x="-0.364899" y="29.5178" width="40.2606" height="1.2934" filterUnits="userSpaceOnUse" color-interpolation-filters="sRGB">
<feFlood flood-opacity="0" result="BackgroundImageFix"/>
<feColorMatrix in="SourceAlpha" type="matrix" values="0 0 0 0 0 0 0 0 0 0 0 0 0 0 0 0 0 0 127 0" result="hardAlpha"/>
<feOffset dy="0.46332"/>
<feComposite in2="hardAlpha" operator="out"/>
<feColorMatrix type="matrix" values="0 0 0 0 0.0980392 0 0 0 0 0.780392 0 0 0 0 0.498039 0 0 0 1 0"/>
<feBlend mode="normal" in2="BackgroundImageFix" result="effect1_dropShadow_29_2506"/>
<feBlend mode="normal" in="SourceGraphic" in2="effect1_dropShadow_29_2506" result="shape"/>
</filter>
<filter id="filter1_d_29_2506" x="-0.364899" y="11.0667" width="40.2606" height="1.2934" filterUnits="userSpaceOnUse" color-interpolation-filters="sRGB">
<feFlood flood-opacity="0" result="BackgroundImageFix"/>
<feColorMatrix in="SourceAlpha" type="matrix" values="0 0 0 0 0 0 0 0 0 0 0 0 0 0 0 0 0 0 127 0" result="hardAlpha"/>
<feOffset dy="0.46332"/>
<feComposite in2="hardAlpha" operator="out"/>
<feColorMatrix type="matrix" values="0 0 0 0 0.0980392 0 0 0 0 0.780392 0 0 0 0 0.498039 0 0 0 1 0"/>
<feBlend mode="normal" in2="BackgroundImageFix" result="effect1_dropShadow_29_2506"/>
<feBlend mode="normal" in="SourceGraphic" in2="effect1_dropShadow_29_2506" result="shape"/>
</filter>
<clipPath id="clip0_29_2506">
<rect width="40" height="39.8456" fill="white" transform="translate(0 0.671143)"/>
</clipPath>
</defs>
</svg>
