<svg width="41" height="41" viewBox="0 0 41 41" fill="none" xmlns="http://www.w3.org/2000/svg">
<g clip-path="url(#clip0_29_2475)">
<path d="M0.513611 9.56315C0.513611 4.80499 4.37085 0.947754 9.12901 0.947754H31.5905C36.3486 0.947754 40.206 4.80501 40.206 9.56316V18.7266V32.0246C40.206 36.7828 36.3486 40.64 31.5905 40.64H9.12901C4.37085 40.64 0.513611 36.7828 0.513611 32.0246V9.56315Z" fill="#2797CF"/>
<path d="M19.9708 28.8471C41.9304 15.6182 18.2424 29.9198 40.2017 16.6909V32.7628L36.7879 39.1363L19.9708 28.8471Z" fill="#FFFFFE" fill-opacity="0.4"/>
<path d="M0.513311 31.7288L0.513306 16.521L35.8745 38.0496L33.1131 39.8373L3.70644 38.107L0.513311 31.7288Z" fill="#FFFFFE" fill-opacity="0.4"/>
<path opacity="0.1" fill-rule="evenodd" clip-rule="evenodd" d="M0.513801 12.313L0.513794 10.1216L20.3598 22.3289L40.2076 10.1481V12.3397L20.3599 24.5204L0.513801 12.313Z" fill="black"/>
<path d="M20.4174 22.2237L0.513611 10.1216V9.63039C0.513611 4.8351 4.41471 0.947755 9.22696 0.947755L31.4926 0.947754C36.3495 0.947756 40.2689 4.9049 40.2052 9.74433L40.2001 10.1216L20.4174 22.2237Z" fill="#FFFFFE" fill-opacity="0.4"/>
<path d="M0.611354 8.79053L20.3596 20.9001L40.1198 8.80183L40.181 9.63702V10.2962L20.3596 22.4315L0.538452 10.2962V9.5602L0.611354 8.79053Z" fill="#B1DAEE"/>
<path d="M20.3596 28.5185L0.538452 16.3833V17.9145L33.5822 38.1541L34.4822 37.8907L35.1719 37.5978L21.6015 29.2895L40.181 17.9145V16.3833L20.3596 28.5185Z" fill="#B1DAEE"/>
<path fill-rule="evenodd" clip-rule="evenodd" d="M0.513794 29.3325V32.0247C0.513794 36.7828 4.37103 40.6401 9.12918 40.6401H31.5907C36.3489 40.6401 40.2061 36.7828 40.2061 32.0247V29.3325C40.2061 34.0907 36.3489 37.9479 31.5907 37.9479H9.12918C4.37103 37.9479 0.513794 34.0907 0.513794 29.3325Z" fill="#2797CF"/>
<path fill-rule="evenodd" clip-rule="evenodd" d="M9.12906 0.947754C4.37092 0.947754 0.513672 4.805 0.513672 9.56314V9.7902C0.978969 5.47105 4.6363 2.10817 9.07909 2.10817H31.5906C36.3488 2.10817 40.206 5.96542 40.206 10.7236V9.56314C40.206 4.805 36.3488 0.947754 31.5906 0.947754H9.12906Z" fill="white" fill-opacity="0.3"/>
</g>
<defs>
<clipPath id="clip0_29_2475">
<rect width="40" height="39.6923" fill="white" transform="translate(0.359985 0.947754)"/>
</clipPath>
</defs>
</svg>
