<svg width="16" height="17" viewBox="0 0 16 17" fill="none" xmlns="http://www.w3.org/2000/svg">
<path d="M6.5 2.96387H3.5C3.23478 2.96387 2.98043 3.06922 2.79289 3.25676C2.60536 3.4443 2.5 3.69865 2.5 3.96387V6.96387C2.5 7.22908 2.60536 7.48344 2.79289 7.67097C2.98043 7.85851 3.23478 7.96387 3.5 7.96387H6.5C6.76522 7.96387 7.01957 7.85851 7.20711 7.67097C7.39464 7.48344 7.5 7.22908 7.5 6.96387V3.96387C7.5 3.69865 7.39464 3.4443 7.20711 3.25676C7.01957 3.06922 6.76522 2.96387 6.5 2.96387ZM6.5 6.96387H3.5V3.96387H6.5V6.96387ZM12.5 2.96387H9.5C9.23478 2.96387 8.98043 3.06922 8.79289 3.25676C8.60536 3.4443 8.5 3.69865 8.5 3.96387V6.96387C8.5 7.22908 8.60536 7.48344 8.79289 7.67097C8.98043 7.85851 9.23478 7.96387 9.5 7.96387H12.5C12.7652 7.96387 13.0196 7.85851 13.2071 7.67097C13.3946 7.48344 13.5 7.22908 13.5 6.96387V3.96387C13.5 3.69865 13.3946 3.4443 13.2071 3.25676C13.0196 3.06922 12.7652 2.96387 12.5 2.96387ZM12.5 6.96387H9.5V3.96387H12.5V6.96387ZM6.5 8.96387H3.5C3.23478 8.96387 2.98043 9.06922 2.79289 9.25676C2.60536 9.4443 2.5 9.69865 2.5 9.96387V12.9639C2.5 13.2291 2.60536 13.4834 2.79289 13.671C2.98043 13.8585 3.23478 13.9639 3.5 13.9639H6.5C6.76522 13.9639 7.01957 13.8585 7.20711 13.671C7.39464 13.4834 7.5 13.2291 7.5 12.9639V9.96387C7.5 9.69865 7.39464 9.4443 7.20711 9.25676C7.01957 9.06922 6.76522 8.96387 6.5 8.96387ZM6.5 12.9639H3.5V9.96387H6.5V12.9639ZM12.5 8.96387H9.5C9.23478 8.96387 8.98043 9.06922 8.79289 9.25676C8.60536 9.4443 8.5 9.69865 8.5 9.96387V12.9639C8.5 13.2291 8.60536 13.4834 8.79289 13.671C8.98043 13.8585 9.23478 13.9639 9.5 13.9639H12.5C12.7652 13.9639 13.0196 13.8585 13.2071 13.671C13.3946 13.4834 13.5 13.2291 13.5 12.9639V9.96387C13.5 9.69865 13.3946 9.4443 13.2071 9.25676C13.0196 9.06922 12.7652 8.96387 12.5 8.96387ZM12.5 12.9639H9.5V9.96387H12.5V12.9639Z" fill="#ABABAB"/>
</svg>
