<svg width="16" height="17" viewBox="0 0 16 17" fill="none" xmlns="http://www.w3.org/2000/svg">
<path d="M10.5 8.96387C10.5 9.09648 10.4473 9.22365 10.3536 9.31742C10.2598 9.41119 10.1326 9.46387 10 9.46387H6C5.86739 9.46387 5.74021 9.41119 5.64645 9.31742C5.55268 9.22365 5.5 9.09648 5.5 8.96387C5.5 8.83126 5.55268 8.70408 5.64645 8.61031C5.74021 8.51655 5.86739 8.46387 6 8.46387H10C10.1326 8.46387 10.2598 8.51655 10.3536 8.61031C10.4473 8.70408 10.5 8.83126 10.5 8.96387ZM10 10.4639H6C5.86739 10.4639 5.74021 10.5165 5.64645 10.6103C5.55268 10.7041 5.5 10.8313 5.5 10.9639C5.5 11.0965 5.55268 11.2237 5.64645 11.3174C5.74021 11.4112 5.86739 11.4639 6 11.4639H10C10.1326 11.4639 10.2598 11.4112 10.3536 11.3174C10.4473 11.2237 10.5 11.0965 10.5 10.9639C10.5 10.8313 10.4473 10.7041 10.3536 10.6103C10.2598 10.5165 10.1326 10.4639 10 10.4639ZM13.5 3.46387V13.4639C13.5 13.9943 13.2893 14.503 12.9142 14.8781C12.5391 15.2532 12.0304 15.4639 11.5 15.4639H4.5C3.96957 15.4639 3.46086 15.2532 3.08579 14.8781C2.71071 14.503 2.5 13.9943 2.5 13.4639V3.46387C2.5 3.33126 2.55268 3.20408 2.64645 3.11031C2.74021 3.01655 2.86739 2.96387 3 2.96387H4.5V2.46387C4.5 2.33126 4.55268 2.20408 4.64645 2.11031C4.74021 2.01655 4.86739 1.96387 5 1.96387C5.13261 1.96387 5.25979 2.01655 5.35355 2.11031C5.44732 2.20408 5.5 2.33126 5.5 2.46387V2.96387H7.5V2.46387C7.5 2.33126 7.55268 2.20408 7.64645 2.11031C7.74021 2.01655 7.86739 1.96387 8 1.96387C8.13261 1.96387 8.25979 2.01655 8.35355 2.11031C8.44732 2.20408 8.5 2.33126 8.5 2.46387V2.96387H10.5V2.46387C10.5 2.33126 10.5527 2.20408 10.6464 2.11031C10.7402 2.01655 10.8674 1.96387 11 1.96387C11.1326 1.96387 11.2598 2.01655 11.3536 2.11031C11.4473 2.20408 11.5 2.33126 11.5 2.46387V2.96387H13C13.1326 2.96387 13.2598 3.01655 13.3536 3.11031C13.4473 3.20408 13.5 3.33126 13.5 3.46387ZM12.5 3.96387H11.5V4.46387C11.5 4.59648 11.4473 4.72365 11.3536 4.81742C11.2598 4.91119 11.1326 4.96387 11 4.96387C10.8674 4.96387 10.7402 4.91119 10.6464 4.81742C10.5527 4.72365 10.5 4.59648 10.5 4.46387V3.96387H8.5V4.46387C8.5 4.59648 8.44732 4.72365 8.35355 4.81742C8.25979 4.91119 8.13261 4.96387 8 4.96387C7.86739 4.96387 7.74021 4.91119 7.64645 4.81742C7.55268 4.72365 7.5 4.59648 7.5 4.46387V3.96387H5.5V4.46387C5.5 4.59648 5.44732 4.72365 5.35355 4.81742C5.25979 4.91119 5.13261 4.96387 5 4.96387C4.86739 4.96387 4.74021 4.91119 4.64645 4.81742C4.55268 4.72365 4.5 4.59648 4.5 4.46387V3.96387H3.5V13.4639C3.5 13.7291 3.60536 13.9834 3.79289 14.171C3.98043 14.3585 4.23478 14.4639 4.5 14.4639H11.5C11.7652 14.4639 12.0196 14.3585 12.2071 14.171C12.3946 13.9834 12.5 13.7291 12.5 13.4639V3.96387Z" fill="#ABABAB"/>
</svg>
