<svg width="16" height="17" viewBox="0 0 16 17" fill="none" xmlns="http://www.w3.org/2000/svg">
<path d="M8 2.46387C4.63562 2.46387 2 4.00137 2 5.96387V11.9639C2 13.9264 4.63562 15.4639 8 15.4639C11.3644 15.4639 14 13.9264 14 11.9639V5.96387C14 4.00137 11.3644 2.46387 8 2.46387ZM13 8.96387C13 9.56512 12.5075 10.1782 11.6494 10.6464C10.6831 11.1732 9.38688 11.4639 8 11.4639C6.61312 11.4639 5.31687 11.1732 4.35063 10.6464C3.4925 10.1782 3 9.56512 3 8.96387V7.92387C4.06625 8.86137 5.88937 9.46387 8 9.46387C10.1106 9.46387 11.9338 8.85887 13 7.92387V8.96387ZM4.35063 4.28137C5.31687 3.75449 6.61312 3.46387 8 3.46387C9.38688 3.46387 10.6831 3.75449 11.6494 4.28137C12.5075 4.74949 13 5.36262 13 5.96387C13 6.56512 12.5075 7.17824 11.6494 7.64637C10.6831 8.17324 9.38688 8.46387 8 8.46387C6.61312 8.46387 5.31687 8.17324 4.35063 7.64637C3.4925 7.17824 3 6.56512 3 5.96387C3 5.36262 3.4925 4.74949 4.35063 4.28137ZM11.6494 13.6464C10.6831 14.1732 9.38688 14.4639 8 14.4639C6.61312 14.4639 5.31687 14.1732 4.35063 13.6464C3.4925 13.1782 3 12.5651 3 11.9639V10.9239C4.06625 11.8614 5.88937 12.4639 8 12.4639C10.1106 12.4639 11.9338 11.8589 13 10.9239V11.9639C13 12.5651 12.5075 13.1782 11.6494 13.6464Z" fill="#ABABAB"/>
</svg>
