<svg width="16" height="17" viewBox="0 0 16 17" fill="none" xmlns="http://www.w3.org/2000/svg">
<path d="M10 7.46387H13C13.2652 7.46387 13.5196 7.35851 13.7071 7.17097C13.8946 6.98344 14 6.72908 14 6.46387V3.46387C14 3.19865 13.8946 2.9443 13.7071 2.75676C13.5196 2.56922 13.2652 2.46387 13 2.46387H10C9.73478 2.46387 9.48043 2.56922 9.29289 2.75676C9.10536 2.9443 9 3.19865 9 3.46387V4.46387H8C7.60218 4.46387 7.22064 4.6219 6.93934 4.90321C6.65804 5.18451 6.5 5.56604 6.5 5.96387V7.96387H4.5V7.46387C4.5 7.19865 4.39464 6.9443 4.20711 6.75676C4.01957 6.56922 3.76522 6.46387 3.5 6.46387H1.5C1.23478 6.46387 0.98043 6.56922 0.792893 6.75676C0.605357 6.9443 0.5 7.19865 0.5 7.46387V9.46387C0.5 9.72908 0.605357 9.98344 0.792893 10.171C0.98043 10.3585 1.23478 10.4639 1.5 10.4639H3.5C3.76522 10.4639 4.01957 10.3585 4.20711 10.171C4.39464 9.98344 4.5 9.72908 4.5 9.46387V8.96387H6.5V10.9639C6.5 11.3617 6.65804 11.7432 6.93934 12.0245C7.22064 12.3058 7.60218 12.4639 8 12.4639H9V13.4639C9 13.7291 9.10536 13.9834 9.29289 14.171C9.48043 14.3585 9.73478 14.4639 10 14.4639H13C13.2652 14.4639 13.5196 14.3585 13.7071 14.171C13.8946 13.9834 14 13.7291 14 13.4639V10.4639C14 10.1987 13.8946 9.9443 13.7071 9.75676C13.5196 9.56922 13.2652 9.46387 13 9.46387H10C9.73478 9.46387 9.48043 9.56922 9.29289 9.75676C9.10536 9.9443 9 10.1987 9 10.4639V11.4639H8C7.86739 11.4639 7.74021 11.4112 7.64645 11.3174C7.55268 11.2237 7.5 11.0965 7.5 10.9639V5.96387C7.5 5.83126 7.55268 5.70408 7.64645 5.61031C7.74021 5.51655 7.86739 5.46387 8 5.46387H9V6.46387C9 6.72908 9.10536 6.98344 9.29289 7.17097C9.48043 7.35851 9.73478 7.46387 10 7.46387ZM3.5 9.46387H1.5V7.46387H3.5V9.46387ZM10 10.4639H13V13.4639H10V10.4639ZM10 3.46387H13V6.46387H10V3.46387Z" fill="#ABABAB"/>
</svg>
