<svg width="519" height="268" viewBox="0 0 519 268" fill="none" xmlns="http://www.w3.org/2000/svg">
<g clip-path="url(#clip0_29_2891)">
<path opacity="0.3" d="M257.383 134.294V1.09753" stroke="#161616" stroke-width="1.17873"/>
<path opacity="0.3" d="M359.8 134.294V81.6319C359.8 78.8183 360.918 76.12 362.907 74.1305C364.897 72.141 367.595 71.0233 370.409 71.0233C373.222 71.0233 375.921 69.9056 377.91 67.9161C379.9 65.9266 381.017 63.2283 381.017 60.4147V1.09753" stroke="#D44B45" stroke-width="1.17873"/>
<path opacity="0.3" d="M460.485 134.294V97.5447C460.485 82.8978 472.358 71.0233 487.006 71.0233C501.653 71.0233 513.528 59.15 513.528 44.5019V1.09753" stroke="#E4761B" stroke-width="1.17873"/>
<path opacity="0.3" d="M57.746 134.294V97.5447C57.746 82.8978 45.8726 71.0233 31.2245 71.0233C16.5776 71.0233 4.70312 59.15 4.70312 44.5019V1.09753" stroke="#2844E5" stroke-width="1.17873"/>
<path opacity="0.3" d="M158.431 134.294V81.6319C158.431 78.8183 157.313 76.12 155.324 74.1305C153.334 72.141 150.636 71.0233 147.822 71.0233C145.009 71.0233 142.31 69.9056 140.321 67.9161C138.331 65.9266 137.214 63.2283 137.214 60.4147V1.09753" stroke="#1F51F4" stroke-width="1.17873"/>
<path opacity="0.3" d="M257.383 134.294V267.49" stroke="#161616" stroke-width="1.17873"/>
<path opacity="0.3" d="M359.8 134.294V186.956C359.8 189.77 360.918 192.468 362.907 194.457C364.897 196.447 367.595 197.565 370.409 197.565C373.222 197.565 375.921 198.682 377.91 200.672C379.9 202.661 381.017 205.36 381.017 208.173V267.49" stroke="#D44B45" stroke-width="1.17873"/>
<path opacity="0.3" d="M460.485 134.294V171.043C460.485 185.69 472.358 197.565 487.006 197.565C501.653 197.565 513.528 209.438 513.528 224.086V267.49" stroke="#E4761B" stroke-width="1.17873"/>
<path opacity="0.3" d="M57.746 134.294V171.043C57.746 185.69 45.8726 197.565 31.2245 197.565C16.5776 197.565 4.70312 209.438 4.70312 224.086V267.49" stroke="#2844E5" stroke-width="1.17873"/>
<path opacity="0.3" d="M158.431 134.294V186.956C158.431 189.77 157.313 192.468 155.324 194.457C153.334 196.447 150.636 197.565 147.822 197.565C145.009 197.565 142.31 198.682 140.321 200.672C138.331 202.661 137.214 205.36 137.214 208.173V267.49" stroke="#1F51F4" stroke-width="1.17873"/>
<path d="M50.0913 89.1027H63.8824C71.418 89.1027 77.0288 89.1027 81.4479 89.5223C85.8563 89.9396 89.02 90.7694 91.6757 92.3901C94.6864 94.2266 97.2197 96.7494 99.0687 99.7525C100.695 102.396 101.529 105.545 101.948 109.937C102.368 114.336 102.368 119.923 102.368 127.427V141.161C102.368 148.665 102.368 154.252 101.948 158.652C101.529 163.043 100.695 166.192 99.0687 168.835C97.22 171.839 94.6866 174.362 91.6757 176.198C89.02 177.819 85.8575 178.648 81.4479 179.066C77.0276 179.484 71.418 179.485 63.8824 179.485H50.0913C42.5557 179.485 36.9461 179.484 32.5282 179.066C28.1174 178.648 24.9549 177.819 22.2992 176.198C19.2883 174.362 16.7549 171.839 14.9062 168.835C13.2796 166.192 12.4462 163.043 12.0266 158.652C11.607 154.252 11.6058 148.665 11.6058 141.161V127.427C11.6058 119.923 11.6058 114.336 12.0266 109.936C12.4462 105.545 13.2784 102.396 14.9062 99.7525C16.7551 96.7494 19.2885 94.2265 22.2992 92.3901C24.9549 90.7694 28.1174 89.9396 32.527 89.5223C36.9461 89.1038 42.5557 89.1027 50.0913 89.1027Z" fill="url(#paint0_linear_29_2891)" stroke="#EBEBEB" stroke-width="1.17873"/>
<path d="M45.5991 159.092V136.914L67.0921 159.092H79.0479V158.516L54.3288 133.267L77.1408 109.307V109.02H65.1095L45.5991 130.192V109.02H35.9171V159.092H45.5991Z" fill="white"/>
<mask id="mask0_29_2891" style="mask-type:luminance" maskUnits="userSpaceOnUse" x="112" y="88" width="93" height="93">
<path d="M183.112 88.3232H133.606C121.888 88.3232 112.388 97.8225 112.388 109.54V159.047C112.388 170.765 121.888 180.264 133.606 180.264H183.112C194.83 180.264 204.329 170.765 204.329 159.047V109.54C204.329 97.8225 194.83 88.3232 183.112 88.3232Z" fill="white"/>
</mask>
<g mask="url(#mask0_29_2891)">
<path d="M112.388 88.3232V180.264H204.329V88.3232H112.388Z" fill="#3A76F0"/>
<path d="M150.771 103.614L151.481 106.488C148.685 107.179 146.009 108.287 143.543 109.774L142.026 107.233C144.74 105.589 147.689 104.369 150.771 103.614ZM165.945 103.614L165.235 106.488C168.031 107.179 170.707 108.287 173.173 109.774L174.709 107.233C171.987 105.591 169.032 104.371 165.945 103.614ZM131.298 117.953C129.655 120.671 128.434 123.623 127.679 126.708L130.551 127.416C131.242 124.621 132.35 121.945 133.838 119.48L131.298 117.953ZM129.717 134.294C129.717 132.857 129.824 131.423 130.04 130.002L127.113 129.553C126.637 132.693 126.637 135.886 127.113 139.026L130.04 138.586C129.825 137.165 129.717 135.731 129.717 134.294ZM174.69 161.347L173.173 158.815C170.711 160.304 168.038 161.412 165.245 162.102L165.955 164.974C169.033 164.212 171.978 162.989 174.69 161.347ZM187.001 134.294C187 135.731 186.892 137.165 186.677 138.586L189.605 139.026C190.08 135.886 190.08 132.693 189.605 129.553L186.677 130.002C186.892 131.423 187.001 132.857 187.001 134.294ZM189.039 141.872L186.165 141.163C185.476 143.961 184.368 146.64 182.879 149.108L185.42 150.635C187.064 147.914 188.284 144.96 189.039 141.872ZM162.651 162.613C159.806 163.043 156.912 163.043 154.067 162.613L153.626 165.54C156.763 166.016 159.954 166.016 163.09 165.54L162.651 162.613ZM181.416 151.282C179.709 153.596 177.663 155.639 175.345 157.342L177.105 159.731C179.657 157.852 181.915 155.604 183.804 153.06L181.416 151.282ZM175.345 111.237C177.663 112.944 179.709 114.99 181.416 117.307L183.804 115.529C181.922 112.983 179.67 110.731 177.124 108.849L175.345 111.237ZM135.302 117.307C137.008 114.99 139.054 112.943 141.371 111.237L139.593 108.849C137.047 110.731 134.795 112.982 132.914 115.529L135.302 117.307ZM185.42 117.953L182.879 119.48C184.368 121.942 185.476 124.615 186.165 127.408L189.039 126.698C188.282 123.617 187.062 120.669 185.42 117.953ZM154.067 105.975C156.912 105.544 159.806 105.544 162.651 105.975L163.09 103.048C159.953 102.572 156.763 102.572 153.626 103.048L154.067 105.975ZM136.819 160.521L130.705 161.939L132.132 155.825L129.25 155.152L127.823 161.266C127.733 161.645 127.719 162.038 127.782 162.422C127.845 162.807 127.982 163.175 128.187 163.506C128.392 163.837 128.661 164.124 128.977 164.352C129.293 164.579 129.651 164.742 130.03 164.83C130.475 164.929 130.934 164.929 131.378 164.83L137.492 163.421L136.819 160.521ZM129.861 152.511L132.752 153.176L133.739 148.939C132.297 146.519 131.222 143.898 130.551 141.163L127.679 141.872C128.325 144.491 129.302 147.017 130.588 149.388L129.861 152.511ZM143.687 158.923L139.45 159.91L140.123 162.802L143.238 162.074C145.608 163.363 148.134 164.341 150.754 164.984L151.463 162.11C148.736 161.431 146.125 160.35 143.714 158.905L143.687 158.923ZM158.359 108.614C144.173 108.624 132.688 120.126 132.688 134.304C132.697 139.132 134.063 143.861 136.63 147.951L134.161 158.491L144.693 156.023C156.698 163.574 172.554 159.973 180.105 147.978C187.656 135.982 184.065 120.126 172.069 112.567C167.962 109.984 163.21 108.613 158.359 108.614Z" fill="white"/>
</g>
<path d="M284.009 88.6562H234.785C223.173 88.6562 213.759 98.07 213.759 109.682V158.906C213.759 170.519 223.173 179.932 234.785 179.932H284.009C295.621 179.932 305.035 170.519 305.035 158.906V109.682C305.035 98.07 295.621 88.6562 284.009 88.6562Z" fill="#161616"/>
<path d="M284.009 88.0665H234.785C222.847 88.0665 213.17 97.7441 213.17 109.682V158.906C213.17 170.844 222.847 180.521 234.785 180.521H284.009C295.947 180.521 305.624 170.844 305.624 158.906V109.682C305.624 97.7441 295.947 88.0665 284.009 88.0665Z" stroke="black" stroke-opacity="0.08" stroke-width="1.17873"/>
<path d="M227.663 114.986L226.725 117.945H231.078L228.916 124.804L232.388 125.743L234.806 117.946H238.563L239.501 114.986H227.663ZM240.839 125.544C241.266 125.516 241.693 125.516 242.12 125.516C242.831 125.516 243.884 125.572 243.884 126.54C243.884 127.223 243.628 128.076 243.429 128.731C243.059 130.068 242.604 131.406 242.519 132.772H246.417C246.303 130.581 247.669 128.674 247.669 126.512C247.669 125.06 246.56 124.462 245.278 124.235L245.648 124.178C248.437 123.808 250.003 121.588 250.003 118.856C250.003 115.811 247.47 114.958 244.852 114.958H240.384C239.103 118.914 237.909 122.897 236.656 126.881L240.099 127.792L240.839 125.544ZM243.258 117.747H244.51C245.449 117.747 246.36 117.974 246.36 119.084C246.36 120.45 245.393 122.727 243.771 122.727H241.693L243.258 117.747ZM258.454 126.17H254.812C256.12 123.694 257.373 121.218 258.482 118.657L255.893 117.86L247.498 132.8H251.425L253.446 128.987H258.255L258.112 132.8H261.897L262.182 119.767L258.939 118.771C258.622 121.225 258.46 123.696 258.454 126.17ZM269.296 132.8H278.175L279.142 129.897H274.077L275.955 123.979L272.427 122.897L269.296 132.8ZM259.166 137.439C259.166 134.736 257.088 133.91 254.698 133.91H249.747L245.079 148.48L250.999 151.724C254.556 151.582 257.031 148.964 257.031 145.35C257.031 143.956 256.178 142.874 254.84 142.504C257.486 141.906 259.166 140.228 259.166 137.439ZM252.677 147.911C251.966 148.964 251.226 149.049 250.031 149.049H248.494L250.174 143.813C251.397 143.87 253.588 143.558 253.588 145.379C253.617 146.175 253.133 147.256 252.677 147.911ZM252.365 141.252H250.97L252.45 136.642C253.56 136.698 255.665 136.33 255.665 138.036C255.665 140.085 254.385 141.252 252.365 141.252ZM266.735 121.19L262.979 133.768L259.649 143.984L263.633 143.671L266.507 134.593L270.406 122.299C269.865 122.158 267.702 121.446 266.735 121.19ZM275.785 136.898H279.57L280.508 133.967H268.585L267.646 136.898H272L269.951 143.443L273.765 143.187L275.785 136.898ZM290.241 139.573C290.468 139.032 290.81 137.837 290.81 137.268C290.81 134.507 288.135 133.768 285.858 133.768C281.959 133.768 279.626 136.499 279.626 140.256C279.626 140.797 280.138 142.163 281.134 142.618L285.83 142.305C285.033 141.622 283.611 140.057 283.611 139.203C283.611 138.036 284.265 136.529 285.603 136.529C286.513 136.529 287.054 136.785 287.054 137.752C287.054 138.378 286.74 138.976 286.569 139.573H290.241ZM242.831 134.024C241.067 134.024 240.811 135.334 240.356 136.728C240.213 137.24 239.929 137.837 239.929 138.35C239.929 139.374 240.839 139.545 241.664 139.545C242.689 139.545 243.23 139.203 243.572 138.264C243.827 137.61 244.453 135.817 244.453 135.163C244.481 134.28 243.572 134.024 242.831 134.024ZM243.316 135.304C243.316 135.533 243.059 136.272 242.974 136.529L242.575 137.752C242.405 138.207 242.234 138.748 241.636 138.748C241.294 138.748 241.095 138.549 241.095 138.207C241.095 137.752 241.437 136.927 241.608 136.471C241.75 136.016 241.95 135.077 242.461 134.906C242.575 134.877 242.689 134.849 242.831 134.849C243.059 134.849 243.344 135.077 243.316 135.304ZM248.125 134.935L248.409 134.052H245.592L243.913 139.516H245.079L245.819 137.155H247.356L247.64 136.272H246.103L246.502 134.935H248.125Z" fill="#DAE2EB"/>
<path d="M277.719 118.345L276.268 123.068L272.739 121.987L274.532 116.266L277.719 118.345ZM281.164 149.818C282.728 149.818 284.293 148.11 284.122 146.63C283.952 145.264 283.184 144.268 281.874 143.5L286.456 143.187C287.309 144.126 287.736 144.61 287.794 146.118C287.85 147.313 287.196 148.822 286.627 149.846C285.346 152.122 283.325 152.607 280.85 152.607C278.488 152.607 275.984 151.866 275.984 149.021C275.984 148.168 276.24 147.313 276.554 146.516H280.423C280.11 147.029 279.911 147.797 279.882 148.367C279.882 149.134 280.309 149.818 281.164 149.818ZM267.788 150.387L269.694 144.411L273.536 144.155L271.971 149.164L267.788 150.387ZM249.945 152.208L243.514 153.118L244.767 149.363L249.945 152.208ZM262.296 118.856L259.223 117.946C258.369 117.689 256.206 117.035 256.206 117.007L256.947 115.669L262.353 114.588L262.296 118.856ZM228.688 125.715L232.16 126.653L230.538 131.947L227.692 128.959L228.688 125.715ZM239.871 128.702L238.534 132.971L234.778 132.943C235.148 131.776 236.087 128.931 236.457 127.764L239.871 128.702Z" fill="#8294A3"/>
<path d="M384.714 88.6562H335.49C323.878 88.6562 314.464 98.07 314.464 109.682V158.906C314.464 170.519 323.878 179.932 335.49 179.932H384.714C396.326 179.932 405.74 170.519 405.74 158.906V109.682C405.74 98.07 396.326 88.6562 384.714 88.6562Z" fill="#D44B45"/>
<path d="M384.714 88.0665H335.49C323.552 88.0665 313.875 97.7441 313.875 109.682V158.906C313.875 170.844 323.552 180.521 335.49 180.521H384.714C396.652 180.521 406.329 170.844 406.329 158.906V109.682C406.329 97.7441 396.652 88.0665 384.714 88.0665Z" stroke="black" stroke-opacity="0.08" stroke-width="1.17873"/>
<path d="M383.099 112.23H339.814C338.945 112.23 338.694 113.409 339.486 113.756L361.543 123.511C361.833 123.645 362.027 123.935 362.027 124.244V143.772C362.027 144.564 363.05 144.873 363.494 144.216L383.775 113.467C384.123 112.945 383.737 112.23 383.099 112.23Z" fill="white"/>
<path d="M336.125 157.351H379.411C380.279 157.351 380.53 156.172 379.738 155.824L357.681 146.07C357.539 146.006 357.419 145.902 357.333 145.773C357.248 145.643 357.201 145.491 357.197 145.336V125.809C357.197 125.017 356.174 124.708 355.73 125.365L335.449 156.114C335.101 156.635 335.488 157.351 336.125 157.351Z" fill="white"/>
<path d="M485.421 88.6562H436.197C424.585 88.6562 415.171 98.07 415.171 109.682V158.906C415.171 170.519 424.585 179.932 436.197 179.932H485.421C497.033 179.932 506.447 170.519 506.447 158.906V109.682C506.447 98.07 497.033 88.6562 485.421 88.6562Z" fill="white"/>
<path d="M485.421 88.0665H436.197C424.259 88.0665 414.582 97.7441 414.582 109.682V158.906C414.582 170.844 424.259 180.521 436.197 180.521H485.421C497.359 180.521 507.036 170.844 507.036 158.906V109.682C507.036 97.7441 497.359 88.0665 485.421 88.0665Z" stroke="black" stroke-opacity="0.08" stroke-width="1.17873"/>
<path d="M460.854 108.694L477.945 158.201L460.854 149.081L443.762 158.201L460.854 108.694Z" fill="#FF4800"/>
</g>
<defs>
<linearGradient id="paint0_linear_29_2891" x1="55.2188" y1="94.4069" x2="88.8126" y2="178.686" gradientUnits="userSpaceOnUse">
<stop stop-color="#00BFF7"/>
<stop offset="1" stop-color="#7964F9"/>
</linearGradient>
<clipPath id="clip0_29_2891">
<rect width="518.641" height="267" fill="white" transform="translate(0 0.793945)"/>
</clipPath>
</defs>
</svg>
