<svg width="56" height="22" viewBox="0 0 56 22" fill="none" xmlns="http://www.w3.org/2000/svg">
<rect x="1.47991" y="0.584213" width="53.3237" height="20.0216" rx="3.57554" stroke="#545B64" stroke-width="1.02158"/>
<path d="M22.8861 14.9081H21.8706V12.3194C20.7694 12.8772 19.7253 13.7353 18.7242 14.9081H17.8946C18.3666 13.8927 18.8243 13.1204 19.2819 12.6198H9.87113V11.6043H19.2676C18.8243 11.1038 18.3666 10.3314 17.8946 9.33029H18.7242C19.7253 10.5031 20.7694 11.3612 21.8706 11.919V9.33029H22.8861V14.9081ZM28.3026 7.17066V16.0952H27.1012V7.17066H23.9261V6.1123H31.4777V7.17066H28.3026ZM37.3695 16.0952C36.9404 16.0952 36.6305 15.9808 36.4398 15.752C36.2587 15.5231 36.1443 15.2371 36.0966 14.8938H36.0251C35.863 15.3515 35.596 15.6947 35.2242 15.9236C34.8523 16.1524 34.4089 16.2668 33.8941 16.2668C33.1122 16.2668 32.502 16.0666 32.0634 15.6661C31.6343 15.2657 31.4198 14.7222 31.4198 14.0357C31.4198 13.3397 31.6725 12.8057 32.1778 12.4339C32.6927 12.062 33.4888 11.8761 34.5663 11.8761H36.0251V11.1467C36.0251 10.6222 35.8821 10.2218 35.596 9.94528C35.31 9.66877 34.8714 9.53052 34.2802 9.53052C33.8321 9.53052 33.4555 9.63063 33.1503 9.83086C32.8548 10.0311 32.6069 10.2981 32.4066 10.6318L31.7201 9.98818C31.9204 9.58772 32.2398 9.24924 32.6784 8.97273C33.117 8.68669 33.67 8.54367 34.3374 8.54367C35.2337 8.54367 35.9297 8.76297 36.4255 9.20157C36.9213 9.64017 37.1692 10.2504 37.1692 11.0322V15.0941H38.0131V16.0952H37.3695ZM34.08 15.2943C34.366 15.2943 34.6282 15.2609 34.8666 15.1942C35.105 15.1274 35.31 15.0321 35.4816 14.9081C35.6532 14.7842 35.7867 14.6412 35.8821 14.4791C35.9774 14.317 36.0251 14.1406 36.0251 13.9499V12.7342H34.509C33.8511 12.7342 33.3696 12.8295 33.0645 13.0202C32.769 13.2109 32.6212 13.4874 32.6212 13.8498V14.1501C32.6212 14.5124 32.7499 14.7937 33.0073 14.9939C33.2743 15.1942 33.6318 15.2943 34.08 15.2943ZM39.6461 5.51161H40.7903V9.91667H40.8475C41.0382 9.44947 41.3147 9.10622 41.677 8.88692C42.0488 8.65809 42.4922 8.54367 43.0071 8.54367C43.4648 8.54367 43.8795 8.63425 44.2514 8.81541C44.6232 8.99657 44.9379 9.25401 45.1953 9.58772C45.4623 9.92144 45.6625 10.3267 45.796 10.8034C45.939 11.2801 46.0105 11.8141 46.0105 12.4052C46.0105 12.9964 45.939 13.5304 45.796 14.0071C45.6625 14.4838 45.4623 14.8891 45.1953 15.2228C44.9379 15.5565 44.6232 15.8139 44.2514 15.9951C43.8795 16.1762 43.4648 16.2668 43.0071 16.2668C42.0059 16.2668 41.2861 15.8092 40.8475 14.8938H40.7903V16.0952H39.6461V5.51161ZM42.6924 15.2371C43.3408 15.2371 43.8509 15.0368 44.2228 14.6364C44.5946 14.2264 44.7806 13.6924 44.7806 13.0345V11.776C44.7806 11.1181 44.5946 10.5889 44.2228 10.1884C43.8509 9.77842 43.3408 9.57342 42.6924 9.57342C42.435 9.57342 42.1871 9.61156 41.9487 9.68784C41.7199 9.75458 41.5197 9.84993 41.348 9.97388C41.1764 10.0978 41.0382 10.2504 40.9333 10.4316C40.8379 10.6032 40.7903 10.7891 40.7903 10.9893V13.7353C40.7903 13.9737 40.8379 14.1882 40.9333 14.3789C41.0382 14.5601 41.1764 14.7174 41.348 14.8509C41.5197 14.9749 41.7199 15.0702 41.9487 15.137C42.1871 15.2037 42.435 15.2371 42.6924 15.2371Z" fill="#CFD3D8"/>
</svg>
